<svg width="20" height="20" viewBox="0 0 20 20" fill="none" xmlns="http://www.w3.org/2000/svg">
<path d="M18.9998 7.75H17.4998C17.4982 6.3581 16.9446 5.02367 15.9603 4.03944C14.9761 3.05522 13.6417 2.50159 12.2498 2.5V1C14.0394 1.00199 15.7551 1.71378 17.0206 2.97922C18.286 4.24466 18.9978 5.9604 18.9998 7.75V7.75ZM17.4998 19.75H17.3723C2.63478 18.9025 0.542282 6.4675 0.249782 2.6725C0.204067 2.07756 0.396545 1.48883 0.784879 1.03579C1.17321 0.58276 1.7256 0.302533 2.32053 0.256751C2.38003 0.252251 2.43978 0.250001 2.49978 0.250001H6.45228C6.7527 0.24971 7.04628 0.339633 7.29501 0.508122C7.54373 0.676611 7.73613 0.915903 7.84728 1.195L8.98728 4C9.09705 4.27266 9.12428 4.57156 9.06562 4.85957C9.00695 5.14758 8.86496 5.412 8.65728 5.62L7.05978 7.2325C7.3083 8.651 7.98707 9.95874 9.00403 10.9784C10.021 11.998 11.3269 12.6802 12.7448 12.9325L14.3723 11.32C14.5834 11.1146 14.8503 10.9759 15.1397 10.9213C15.4292 10.8666 15.7283 10.8983 15.9998 11.0125L18.8273 12.145C19.1022 12.2597 19.3367 12.4536 19.501 12.702C19.6653 12.9504 19.7519 13.2422 19.7498 13.54V17.5C19.7498 18.0967 19.5127 18.669 19.0908 19.091C18.6688 19.5129 18.0965 19.75 17.4998 19.75ZM2.49978 1.75C2.40129 1.7497 2.30371 1.76881 2.2126 1.80623C2.12149 1.84365 2.03865 1.89864 1.96879 1.96808C1.89894 2.03751 1.84345 2.12003 1.80548 2.21091C1.76752 2.30179 1.74783 2.39926 1.74753 2.49775C1.74753 2.51875 1.74828 2.5395 1.74978 2.56C2.09478 7 4.30728 17.5 17.4548 18.25C17.6533 18.2619 17.8484 18.1945 17.9972 18.0625C18.146 17.9306 18.2363 17.745 18.2483 17.5465L18.2498 17.5V13.54L15.4223 12.4075L13.2698 14.545L12.9098 14.5C6.38478 13.6825 5.49978 7.1575 5.49978 7.09L5.45478 6.73L7.58478 4.5775L6.45978 1.75H2.49978Z" fill="#252525"/>
</svg>
