<svg width="657" height="638" viewBox="0 0 657 638" fill="none" xmlns="http://www.w3.org/2000/svg">
<g clip-path="url(#clip0_1565_274)" filter="url(#filter0_d_1565_274)">
<path d="M313.808 629.869C484.911 629.869 623.617 549.768 623.617 450.96C623.617 352.151 484.911 272.051 313.808 272.051C142.706 272.051 4 352.151 4 450.96C4 549.768 142.706 629.869 313.808 629.869Z" fill="#F5F5F5"/>
<path d="M286.719 553.174L159.167 479.506C156.011 477.664 156.011 474.77 159.167 472.928L297.502 393.077C300.658 391.235 305.787 391.235 308.943 393.077L436.495 466.745C439.651 468.587 439.651 471.481 436.495 473.323L298.291 553.174C295.004 554.884 289.875 554.884 286.719 553.174Z" fill="#E0E0E0"/>
<path d="M506.058 547.123C539.247 547.123 566.152 531.574 566.152 512.394C566.152 493.213 539.247 477.664 506.058 477.664C472.869 477.664 445.963 493.213 445.963 512.394C445.963 531.574 472.869 547.123 506.058 547.123Z" fill="#E0E0E0"/>
<path d="M81.4523 520.945L28.0642 490.03C25.0398 488.32 25.0398 485.426 28.0642 483.716L338.925 304.149C341.949 302.439 346.814 302.439 349.839 304.149L403.227 335.063C406.251 336.774 406.251 339.668 403.227 341.378L92.3666 520.945C89.3421 522.655 84.4767 522.655 81.4523 520.945Z" fill="#E0E0E0"/>
<path d="M273.57 459.773L319.462 433.2C324.196 430.438 326.563 426.886 326.563 423.334C326.563 419.782 326.563 416.888 326.563 416.888L278.961 390.051C276.463 388.604 274.359 385.053 274.359 382.158V333.09L194.145 379.527V428.596C194.145 431.49 196.249 435.042 198.748 436.489L239.249 459.905C248.717 465.298 264.102 465.299 273.57 459.773Z" fill="#263238"/>
<path d="M213.475 438.594V444.908L198.748 436.489C196.249 435.042 194.145 431.49 194.145 428.596V379.527L209.399 370.714C209.662 374.66 210.056 378.607 210.319 382.553L199.537 388.736V425.307C199.537 428.201 201.509 431.753 204.139 433.2L213.475 438.594Z" fill="black"/>
<path d="M199.668 425.307C199.668 428.201 201.772 431.753 204.271 433.2L239.249 453.327C248.717 458.852 264.102 458.852 273.57 453.327L319.594 426.754C329.062 421.229 329.062 412.415 319.594 406.89L284.616 386.763C282.117 385.316 280.013 381.764 280.013 378.87V342.167L199.8 388.604V425.307H199.668Z" fill="#455A64"/>
<path d="M293.82 392.288L284.484 386.894C281.986 385.447 279.882 381.895 279.882 379.001V342.299L199.668 388.736V425.439C199.668 428.333 201.772 431.885 204.271 433.332L213.475 438.594L293.82 392.288Z" fill="#37474F"/>
<path d="M326.563 416.888C326.563 416.888 326.563 419.65 326.563 423.334C326.563 427.017 324.196 430.438 319.462 433.2L273.57 459.773C268.967 462.404 263.182 463.72 257.264 463.851V457.537C263.182 457.405 269.099 456.09 273.57 453.459L319.462 426.886C324.196 424.123 326.563 420.571 326.563 416.888Z" fill="#37474F"/>
<path d="M70.8003 480.295C73.8248 482.005 78.6902 481.874 81.8461 480.032C121.295 457.274 352.731 323.618 392.18 300.86C395.336 299.018 397.835 294.546 397.835 290.994V47.4935C397.835 43.81 395.468 39.4689 392.443 37.7587C389.419 36.0485 384.554 36.1801 381.398 38.0218L71.0633 217.194C67.9074 219.036 65.4089 223.508 65.4089 227.06V470.561C65.5404 474.244 67.9074 478.585 70.8003 480.295Z" fill="#455A64"/>
<path d="M81.978 480.164L392.312 300.992C395.468 299.15 397.967 294.677 397.967 291.125V47.4934C397.967 43.81 395.468 42.3629 392.312 44.2046L81.978 223.377C78.822 225.218 76.3236 229.691 76.3236 233.243V476.743C76.1921 480.427 78.822 482.005 81.978 480.164Z" fill="#37474F"/>
<path d="M81.0571 486.61C77.9012 488.057 73.5618 487.925 70.8003 486.347C67.9074 484.636 65.4089 480.295 65.4089 476.612V461.484L76.1917 467.666V482.926C76.1917 486.215 78.2957 487.794 81.0571 486.61Z" fill="#37474F"/>
<path d="M76.1914 467.667V482.926C76.1914 486.61 78.6899 488.057 81.8458 486.215L392.18 307.043C395.336 305.201 397.835 300.729 397.835 297.177V281.917L76.1914 467.667Z" fill="#455A64"/>
<path d="M86.9744 438.988V236.795C86.9744 234.559 88.5523 231.928 90.3933 230.875L383.764 61.4379C385.605 60.3855 387.183 61.1748 387.183 63.4111V265.605C387.183 267.841 385.605 270.472 383.764 271.524L90.3933 440.962C88.4208 442.146 86.9744 441.225 86.9744 438.988Z" fill="#14B86E"/>
<path d="M86.9744 438.988V236.795C86.9744 234.559 88.5523 231.928 90.3933 230.875L383.764 61.4379C385.605 60.3855 387.183 61.1748 387.183 63.4111V265.605C387.183 267.841 385.605 270.472 383.764 271.524L90.3933 440.962C88.4208 442.146 86.9744 441.225 86.9744 438.988Z" fill="#14B86E"/>
<path opacity="0.8" d="M86.9744 438.988V236.795C86.9744 234.559 88.5523 231.928 90.3933 230.875L383.764 61.4379C385.605 60.3855 387.183 61.1748 387.183 63.4111V265.605C387.183 267.841 385.605 270.472 383.764 271.524L90.3933 440.962C88.4208 442.146 86.9744 441.225 86.9744 438.988Z" fill="white"/>
<path d="M237.145 380.448C234.515 381.895 232.411 385.579 232.411 388.604C232.411 391.63 234.515 392.814 237.145 391.367C239.775 389.92 241.879 386.237 241.879 383.211C241.879 380.185 239.643 379.001 237.145 380.448Z" fill="#14B86E"/>
<path d="M77.9012 227.718C76.8492 229.56 76.1917 231.533 76.1917 233.375V467.798L65.4089 461.615V227.192C65.4089 225.35 66.0664 223.377 67.1184 221.535L77.9012 227.718Z" fill="#263238"/>
<path d="M146.675 248.634L322.093 147.34L329.062 151.418C330.903 152.471 332.35 155.102 332.35 157.075V286.521C332.35 288.626 330.903 291.125 329.062 292.178L160.219 389.657C158.378 390.709 155.485 390.709 153.644 389.657L149.962 387.552C148.122 386.5 146.675 383.869 146.675 381.895V248.634Z" fill="#14B86E"/>
<path opacity="0.2" d="M146.675 248.634L322.093 147.34L329.062 151.418C330.903 152.471 332.35 155.102 332.35 157.075V286.521C332.35 288.626 330.903 291.125 329.062 292.178L160.219 389.657C158.378 390.709 155.485 390.709 153.644 389.657L149.962 387.552C148.122 386.5 146.675 383.869 146.675 381.895V248.634Z" fill="black"/>
<path d="M321.172 135.896L321.83 135.501L319.068 133.922C318.805 133.791 318.542 133.659 318.279 133.528L241.222 104.981C239.118 104.192 236.488 105.113 235.304 106.823L148.911 232.98C147.727 234.822 146.675 237.979 146.675 240.215C146.675 243.767 146.675 248.635 146.675 248.635L149.305 250.213L321.961 147.34V138.921C322.093 137.869 321.698 136.816 321.172 135.896Z" fill="#14B86E"/>
<path opacity="0.1" d="M238.855 107.481C238.46 107.744 238.197 108.138 237.934 108.401L151.54 234.558C150.883 235.479 150.357 236.795 149.962 238.11L147.332 236.532C147.464 235.874 147.727 235.216 147.99 234.69C148.121 234.427 148.253 234.164 148.384 233.901C148.384 233.901 148.384 233.769 148.516 233.769C148.647 233.506 148.779 233.243 148.91 232.98L235.304 106.823C235.436 106.56 235.567 106.428 235.699 106.297C235.83 106.165 235.962 106.033 236.225 105.902L238.855 107.481Z" fill="black"/>
<path opacity="0.35" d="M321.83 135.501C321.567 135.369 321.304 135.238 321.041 135.106L243.852 106.428C242.274 105.77 240.17 106.297 238.855 107.349L236.225 105.77C237.671 104.718 239.644 104.192 241.222 104.85L318.411 133.528C318.674 133.659 318.937 133.791 319.2 133.922L321.83 135.501Z" fill="white"/>
<path d="M148.516 233.769C148.647 233.506 148.779 233.243 149.042 232.98C148.779 233.243 148.647 233.506 148.516 233.769Z" fill="#14B86E"/>
<path d="M235.698 106.297C235.83 106.165 235.961 106.033 236.224 105.902C235.961 106.033 235.83 106.165 235.698 106.297Z" fill="#14B86E"/>
<path d="M147.332 236.663C147.595 236.006 147.727 235.348 147.99 234.69C147.727 235.348 147.464 236.006 147.332 236.663Z" fill="#14B86E"/>
<path d="M147.99 234.69C148.121 234.427 148.253 234.164 148.384 233.901C148.253 234.164 148.121 234.427 147.99 234.69Z" fill="#14B86E"/>
<path opacity="0.2" d="M235.304 106.823C235.435 106.691 235.567 106.428 235.698 106.297C235.567 106.56 235.435 106.691 235.304 106.823Z" fill="black"/>
<path d="M237.935 108.401L151.541 234.559C150.357 236.4 149.305 239.557 149.305 241.794C149.305 245.346 149.305 250.213 149.305 250.213L324.723 148.919V140.5C324.723 138.263 323.013 135.896 321.041 135.238L243.852 106.56C241.879 105.77 239.118 106.56 237.935 108.401Z" fill="#14B86E"/>
<path opacity="0.05" d="M324.723 140.5C324.723 139.447 324.328 138.395 323.802 137.606L149.963 238.11C149.568 239.294 149.305 240.61 149.305 241.662C149.305 245.214 149.305 250.082 149.305 250.082L324.723 148.788V140.5Z" fill="black"/>
<path d="M224.521 266.131C228.071 274.418 229.912 283.364 229.912 292.704V297.835L164.427 331.906V315.988V253.107C164.427 251.529 164.558 250.082 164.953 248.635C165.084 248.108 165.216 247.451 165.478 246.924C165.61 246.661 165.61 246.398 165.741 246.135C166.004 245.346 166.399 244.425 166.793 243.767C167.451 242.452 168.371 241.268 169.292 240.084C169.555 239.689 169.818 239.426 170.212 239.163C170.475 238.9 170.87 238.505 171.133 238.242C172.185 237.321 173.237 236.532 174.42 235.874C180.732 232.191 188.096 232.191 194.408 235.874C194.408 235.874 195.591 235.348 197.695 234.559C207.426 240.61 215.316 248.898 220.839 258.369C222.154 261 223.337 263.5 224.521 266.131Z" fill="#E0E0E0"/>
<path d="M434.918 467.798L292.506 550.149V542.519L434.918 460.036V467.798Z" fill="#F5F5F5"/>
<path d="M224.521 266.131C223.47 263.5 222.155 261 220.708 258.501C219.656 256.659 218.604 254.949 217.289 253.239C216.895 252.713 216.632 252.318 216.237 251.792C215.974 251.397 215.58 251.002 215.317 250.476C215.054 250.082 214.791 249.818 214.528 249.424C214.396 249.292 214.396 249.161 214.265 249.029C213.87 248.635 213.607 248.24 213.213 247.714C213.081 247.451 212.95 247.319 212.687 247.187C212.424 246.793 212.161 246.53 211.766 246.267C211.109 245.477 210.451 244.82 209.662 244.162C209.268 243.767 208.873 243.372 208.479 242.978C208.347 242.846 208.216 242.715 208.084 242.583C207.69 242.189 207.295 241.925 207.032 241.531C206.638 241.136 206.112 240.741 205.717 240.347C205.323 240.084 204.928 239.689 204.665 239.426C204.534 239.294 204.271 239.163 204.139 239.031C203.745 238.637 203.35 238.374 202.824 237.979C202.298 237.584 201.641 237.19 201.115 236.795C200.589 236.4 199.931 236.006 199.405 235.611C198.748 235.216 198.222 234.822 197.564 234.427C197.433 234.295 197.301 234.295 197.17 234.164C196.644 233.901 196.118 233.506 195.592 233.243C195.066 232.98 194.672 232.717 194.146 232.454C193.357 232.059 192.568 231.664 191.647 231.401C190.727 231.007 189.806 230.875 188.886 230.612C188.623 230.481 188.228 230.481 187.965 230.481C186.65 230.217 185.467 230.217 184.152 230.217C183.757 230.217 183.494 230.217 183.1 230.217C182.574 230.217 182.048 230.217 181.653 230.349C181.39 230.349 181.127 230.349 180.864 230.481C180.733 230.481 180.47 230.481 180.338 230.612C180.075 230.612 179.944 230.612 179.681 230.744C179.681 230.744 179.681 230.744 179.549 230.744C179.286 230.875 178.892 230.875 178.629 231.007C178.366 231.007 178.103 231.138 177.971 231.138C177.84 231.138 177.708 231.27 177.577 231.27C177.314 231.401 177.051 231.401 176.788 231.533C176.13 231.796 175.473 232.059 174.815 232.322C174.421 232.454 174.026 232.717 173.632 232.848C173.5 232.848 173.369 232.98 173.237 232.98C172.974 233.112 172.843 233.243 172.58 233.375C172.317 233.506 172.185 233.638 171.922 233.769C171.133 234.164 170.476 234.69 169.687 235.216L169.555 235.348C169.161 235.611 168.898 235.874 168.504 236.269C168.241 236.532 167.978 236.795 167.715 236.927C167.583 237.058 167.452 237.19 167.32 237.321C166.663 237.979 166.005 238.768 165.479 239.426C165.216 239.689 164.953 240.084 164.822 240.347C164.559 240.741 164.296 241.136 164.033 241.531C163.77 241.925 163.638 242.32 163.375 242.715C163.112 243.241 162.849 243.767 162.586 244.425C162.455 244.688 162.323 244.951 162.323 245.214C162.323 245.346 162.192 245.477 162.192 245.609C162.06 246.003 161.929 246.398 161.797 246.924C161.666 247.319 161.534 247.714 161.534 248.24C161.403 248.503 161.403 248.766 161.403 249.161C161.403 249.292 161.403 249.424 161.403 249.555C161.403 249.818 161.271 250.082 161.271 250.345C161.271 250.739 161.14 251.134 161.14 251.529C161.14 252.055 161.14 252.581 161.14 253.107V315.988H167.846V253.107C167.846 247.319 170.87 242.057 175.867 239.163C180.864 236.269 186.913 236.269 191.91 239.163C203.219 245.74 212.292 255.87 217.552 267.841L225.573 269.814C225.573 268.63 225.047 267.315 224.521 266.131Z" fill="#EBEBEB"/>
<path d="M328.01 288.231C328.01 288.363 327.879 288.363 327.879 288.494L254.766 265.341C248.98 262.842 242.274 264.815 238.987 270.209L160.877 386.368L157.984 388.078C157.064 388.604 156.275 388.604 155.749 388.341L236.094 268.63C239.381 263.237 246.219 261.263 251.873 263.763L328.01 288.231Z" fill="#14B86E"/>
<path opacity="0.4" d="M231.622 281.522L231.754 281.391L160.614 386.368L157.721 388.078C156.8 388.604 156.011 388.604 155.485 388.341L228.861 279.944L231.622 281.522Z" fill="white"/>
<path opacity="0.4" d="M328.01 288.231C328.01 288.363 327.879 288.363 327.879 288.494L254.766 265.341C248.98 262.842 242.274 264.815 238.986 270.209L236.093 268.499C239.381 263.237 246.087 261.132 251.873 263.631L328.01 288.231Z" fill="white"/>
<path d="M332.349 156.286C332.218 155.365 331.692 155.102 331.034 155.497C330.771 155.628 330.508 156.023 330.245 156.417L329.851 156.944L257.659 266.657L246.876 281.654C245.693 283.364 243.063 284.416 240.959 283.89L231.622 281.654L160.614 255.475C160.088 255.344 159.562 255.344 159.167 255.475C159.036 255.475 158.773 255.607 158.641 255.607L161.271 254.028L229.255 279.023L238.197 282.18C240.301 282.706 242.931 281.654 244.115 279.944L254.897 264.947L327.352 154.707C327.615 154.313 327.878 154.181 328.141 153.918L321.83 150.235L324.46 148.656L328.799 151.155C330.64 152.208 331.955 154.313 332.349 156.286Z" fill="#14B86E"/>
<path opacity="0.4" d="M257.659 266.525L246.876 281.522C245.693 283.232 243.063 284.285 240.959 283.758L231.623 281.522L231.754 281.391L232.149 280.733L238.197 282.18C240.301 282.706 242.931 281.654 244.115 279.944L254.766 265.078L257.659 266.525Z" fill="white"/>
<path opacity="0.1" d="M329.062 151.287L324.723 148.788L322.093 150.366L328.405 154.05C328.142 154.313 327.747 154.444 327.616 154.839L255.161 264.947L255.029 265.078L257.659 266.525L329.851 156.812L330.246 156.286C330.509 155.891 330.772 155.628 331.035 155.365C331.692 154.97 332.218 155.234 332.35 156.154C331.955 154.313 330.64 152.208 329.062 151.287Z" fill="black"/>
<path d="M162.192 257.58L146.675 248.634V381.895C146.675 384 148.122 386.5 149.962 387.552L153.644 389.657C155.485 390.709 158.378 390.709 160.219 389.657L162.06 388.604V257.58H162.192Z" fill="#14B86E"/>
<path opacity="0.15" d="M162.192 257.58L146.675 248.634V381.895C146.675 384 148.122 386.5 149.962 387.552L153.644 389.657C155.485 390.709 158.378 390.709 160.219 389.657L162.06 388.604V257.58H162.192Z" fill="black"/>
<path d="M329.851 156.812V284.811C329.851 285.863 329.457 287.047 328.799 288.1C328.273 289.021 327.616 289.81 326.827 290.205L326.695 290.336C326.564 290.336 326.564 290.468 326.432 290.468L157.589 387.947C157.326 388.078 157.195 388.21 156.932 388.21C156.932 388.078 156.932 387.815 156.932 387.552V258.106C156.932 256.001 158.641 254.686 160.614 255.212L231.623 281.391L240.959 283.627C243.063 284.153 245.693 283.101 246.876 281.391L257.659 266.394L329.851 156.812Z" fill="#455A64"/>
<path d="M332.35 157.075V286.521C332.35 287.574 331.955 288.757 331.298 289.81C330.772 290.731 330.114 291.52 329.325 292.046H329.194C329.062 292.046 329.062 292.178 328.931 292.178L160.088 389.657C159.167 390.183 158.378 390.183 157.852 389.92C157.326 389.657 156.932 389.131 156.8 388.341C156.8 388.21 156.8 387.947 156.8 387.684V258.238C156.8 256.133 158.51 254.817 160.482 255.344L231.491 281.522L240.827 283.759C242.931 284.285 245.561 283.232 246.745 281.522L257.527 266.525L329.72 156.812L330.114 156.286C331.429 154.576 332.35 154.97 332.35 157.075Z" fill="#14B86E"/>
<path d="M329.063 292.178C329.194 292.178 329.194 292.046 329.326 292.046L329.457 291.915C330.246 291.388 330.904 290.599 331.43 289.81C332.087 288.757 332.482 287.573 332.482 286.521L257.791 266.525L307.76 304.544L329.063 292.178Z" fill="#14B86E"/>
<path opacity="0.2" d="M329.063 292.178C329.194 292.178 329.194 292.046 329.326 292.046L329.457 291.915C330.246 291.388 330.904 290.599 331.43 289.81C332.087 288.757 332.482 287.573 332.482 286.521L257.791 266.525L307.76 304.544L329.063 292.178Z" fill="black"/>
<path d="M157.064 387.815C157.064 388.867 157.458 389.657 158.116 390.051C158.642 390.315 159.431 390.315 160.351 389.788L218.473 356.243L231.754 281.654L157.064 385.71V387.815Z" fill="#14B86E"/>
<path opacity="0.15" d="M238.855 270.209L157.984 390.051C157.326 389.657 156.932 388.999 156.932 387.947V385.842L235.831 268.762L238.855 270.209Z" fill="black"/>
<path d="M331.429 289.81C330.903 290.731 330.246 291.389 329.457 291.915L329.325 292.046L160.351 389.657C159.43 390.183 158.641 390.183 158.115 389.92L238.986 270.077C242.274 264.684 249.112 262.71 254.897 265.21L331.429 289.81Z" fill="#14B86E"/>
<path d="M331.429 289.81C330.903 290.731 330.246 291.52 329.457 291.915L329.325 292.046L160.351 389.657C159.43 390.183 158.641 390.183 158.115 389.92L160.351 386.368L326.432 290.468L326.564 290.336C327.221 289.81 327.879 289.152 328.273 288.494L331.429 289.81Z" fill="#14B86E"/>
<path opacity="0.15" d="M147.333 236.663L149.962 238.242C149.568 239.557 149.305 240.741 149.305 241.794C149.305 245.346 149.305 250.213 149.305 250.213L146.675 248.634C146.675 248.634 146.675 243.899 146.675 240.215C146.675 239.163 146.938 237.847 147.333 236.663Z" fill="black"/>
<path d="M161.403 254.028L158.773 255.607L156.012 254.028L149.305 250.082L151.935 248.634L161.403 254.028Z" fill="#14B86E"/>
<path opacity="0.1" d="M161.534 254.028L151.935 248.634L149.305 250.213L156.012 254.028L158.773 255.607C158.905 255.475 159.168 255.475 159.299 255.475C159.693 255.344 160.219 255.344 160.745 255.475L166.137 257.448L228.072 280.207L228.993 278.76L161.534 254.028Z" fill="black"/>
<path d="M263.971 525.68C243.063 513.578 230.176 491.214 230.176 467.14V292.836C230.176 283.627 228.335 274.55 224.784 265.999C223.732 263.368 222.417 260.737 220.971 258.238C214.922 247.714 206.243 239.031 195.723 232.98C192.042 230.875 188.097 229.823 184.02 229.823C182.574 229.823 181.127 229.954 179.812 230.217L190.858 223.771L253.451 187.595L315.123 151.682L315.255 151.55C318.674 149.577 322.487 148.524 326.301 148.524C330.114 148.524 333.927 149.577 337.346 151.55C347.603 157.47 356.151 166.021 362.068 176.282C367.985 186.543 371.141 198.251 371.141 210.09V384.263C371.141 408.863 384.291 431.753 405.594 443.987L433.077 459.905L291.98 541.598L263.971 525.68Z" fill="white"/>
<path d="M326.432 148.261V149.577C330.246 149.577 333.796 150.498 337.083 152.471C347.209 158.391 355.756 166.81 361.542 176.939C367.459 187.069 370.484 198.645 370.484 210.485V384.658C370.484 409.389 383.765 432.542 405.331 444.908L431.762 460.168L291.98 541.072L264.365 525.154C243.72 513.183 230.833 490.951 230.833 467.14V292.835C230.833 283.495 228.992 274.418 225.31 265.736C224.258 263.105 222.943 260.474 221.497 257.975C215.448 247.45 206.638 238.637 195.986 232.454C192.305 230.349 188.228 229.165 184.02 229.165C183.626 229.165 183.231 229.165 182.837 229.165L191.121 224.298L253.714 188.121L315.518 152.208L315.649 152.076C318.937 150.234 322.619 149.182 326.432 149.182V148.261ZM326.432 148.261C322.356 148.261 318.411 149.314 314.992 151.287L314.86 151.418L253.188 187.332L190.595 223.377L173.632 233.111C176.788 231.533 180.338 230.612 184.02 230.612C187.834 230.612 191.647 231.533 195.329 233.769C205.849 239.821 214.396 248.503 220.313 258.764C221.76 261.263 222.943 263.763 224.127 266.394C227.677 274.681 229.518 283.627 229.518 292.967V467.14C229.518 491.609 242.537 514.104 263.708 526.338L292.111 542.782L434.523 460.3L406.12 443.856C384.949 431.622 371.93 409.126 371.93 384.658V210.485C371.93 198.25 368.643 186.542 362.725 176.282C356.808 166.021 348.261 157.338 337.741 151.287C334.059 149.182 330.246 148.261 326.432 148.261Z" fill="#F5F5F5"/>
<path d="M292.506 542.519L264.102 526.075C242.931 513.841 229.913 491.345 229.913 466.877V292.704C229.913 284.811 228.598 277.181 225.968 269.946L217.947 267.972C218.078 268.367 218.21 268.63 218.341 269.025C221.497 276.523 223.075 284.548 223.075 292.704V466.877C223.075 493.582 237.408 518.576 260.552 531.863L289.087 548.307L292.374 550.149L292.506 542.519Z" fill="#F0F0F0"/>
<path d="M265.812 244.819L327.221 209.432C328.142 208.906 328.668 207.591 328.142 206.67C327.353 204.697 326.432 202.723 325.38 200.75C324.46 199.171 323.539 197.461 322.619 195.883C322.093 194.962 320.778 194.699 319.857 195.225L258.448 230.612C257.527 231.138 257.133 232.191 257.659 232.98C257.922 233.375 258.185 233.901 258.579 234.295C260.026 236.663 261.341 239.031 262.524 241.531C262.919 242.32 263.182 243.109 263.576 243.899C263.708 244.951 264.891 245.346 265.812 244.819Z" fill="#14B86E"/>
<path d="M225.705 237.058L338.924 171.677C339.845 171.151 339.976 170.099 339.319 169.309C338.924 168.915 338.53 168.52 338.135 168.125C337.346 167.336 335.9 167.205 334.979 167.731L221.76 233.111C220.84 233.638 220.708 234.69 221.497 235.479C221.892 235.874 222.286 236.269 222.681 236.663C223.338 237.453 224.785 237.584 225.705 237.058Z" fill="#E0E0E0"/>
<path d="M214.002 229.428C213.345 228.902 212.556 228.376 211.767 227.981C210.583 227.192 209.531 226.534 208.348 225.876C207.822 225.613 207.296 225.35 206.77 225.087C205.849 224.692 205.849 223.903 206.77 223.377L319.989 157.996C320.91 157.47 321.83 157.075 321.962 157.075C322.093 157.075 322.093 157.075 322.225 157.207C323.277 157.601 324.46 158.128 325.512 158.785C327.222 159.838 329.062 160.89 330.64 162.074C331.561 162.732 331.429 163.653 330.509 164.179L217.29 229.56C216.369 230.086 214.923 230.086 214.002 229.428Z" fill="#14B86E"/>
<path opacity="0.4" d="M214.002 229.428C213.345 228.902 212.556 228.376 211.767 227.981C210.583 227.192 209.531 226.534 208.348 225.876C207.822 225.613 207.296 225.35 206.77 225.087C205.849 224.692 205.849 223.903 206.77 223.377L319.989 157.996C320.91 157.47 321.83 157.075 321.962 157.075C322.093 157.075 322.093 157.075 322.225 157.207C323.277 157.601 324.46 158.128 325.512 158.785C327.222 159.838 329.062 160.89 330.64 162.074C331.561 162.732 331.429 163.653 330.509 164.179L217.29 229.56C216.369 230.086 214.923 230.086 214.002 229.428Z" fill="black"/>
<path d="M320.515 291.388V242.715C320.515 241.136 320.384 237.058 320.252 235.479C320.121 233.111 319.726 230.744 319.332 228.376C319.2 227.323 318.148 226.929 317.228 227.455L243.063 270.34C242.143 270.866 241.485 272.182 241.748 273.234C242.406 276.918 242.8 280.733 242.8 284.548C242.8 284.811 242.8 291.388 242.8 291.651V336.379C242.8 337.431 243.589 337.957 244.51 337.431L318.806 294.546C319.726 293.888 320.515 292.572 320.515 291.388Z" fill="#14B86E"/>
<path opacity="0.8" d="M320.515 291.388V242.715C320.515 241.136 320.384 237.058 320.252 235.479C320.121 233.111 319.726 230.744 319.332 228.376C319.2 227.323 318.148 226.929 317.228 227.455L243.063 270.34C242.143 270.866 241.485 272.182 241.748 273.234C242.406 276.918 242.8 280.733 242.8 284.548C242.8 284.811 242.8 291.388 242.8 291.651V336.379C242.8 337.431 243.589 337.957 244.51 337.431L318.806 294.546C319.726 293.888 320.515 292.572 320.515 291.388Z" fill="white"/>
<path d="M297.766 265.078L284.879 291.125L289.613 297.308L263.182 274.681L242.8 324.802V336.379C242.8 337.431 243.589 337.957 244.509 337.431L318.805 294.546C319.726 294.019 320.515 292.704 320.515 291.52V283.89L297.766 265.078Z" fill="#14B86E"/>
<path d="M270.415 334.669L331.692 299.282C332.613 298.755 333.402 299.15 333.402 300.334V308.753C333.402 309.806 332.613 311.121 331.692 311.779L270.415 347.035C269.494 347.561 268.705 347.166 268.705 345.982V337.563C268.705 336.51 269.494 335.195 270.415 334.669Z" fill="#14B86E"/>
<path d="M257.396 360.716L344.579 310.332C345.5 309.806 346.289 310.2 346.289 311.384V313.621C346.289 314.673 345.5 315.988 344.579 316.646L257.396 366.767C256.476 367.293 255.687 366.899 255.687 365.715V363.478C255.687 362.557 256.476 361.242 257.396 360.716Z" fill="#E0E0E0"/>
<path d="M251.479 376.502L349.576 319.803C350.496 319.277 351.285 319.672 351.285 320.856V323.092C351.285 324.145 350.496 325.46 349.576 326.118L251.479 382.816C250.558 383.342 249.769 382.948 249.769 381.764V379.527C249.769 378.343 250.427 377.028 251.479 376.502Z" fill="#E0E0E0"/>
<path d="M244.51 398.997L274.754 381.501C275.675 380.975 276.464 381.369 276.464 382.553V415.572C276.464 416.625 275.675 417.94 274.754 418.598L244.51 436.094C243.589 436.62 242.8 436.226 242.8 435.042V402.023C242.8 400.839 243.589 399.523 244.51 398.997Z" fill="#14B86E"/>
<path opacity="0.5" d="M244.51 398.997L274.754 381.501C275.675 380.975 276.464 381.369 276.464 382.553V415.572C276.464 416.625 275.675 417.94 274.754 418.598L244.51 436.094C243.589 436.62 242.8 436.226 242.8 435.042V402.023C242.8 400.839 243.589 399.523 244.51 398.997Z" fill="white"/>
<path d="M285.932 375.055L316.176 357.558C317.097 357.032 317.886 357.427 317.886 358.611V391.63C317.886 392.682 317.097 393.998 316.176 394.656L285.932 412.152C285.011 412.678 284.222 412.283 284.222 411.099V378.08C284.222 376.896 285.011 375.581 285.932 375.055Z" fill="#14B86E"/>
<path d="M327.353 351.113L357.598 333.616C358.518 333.09 359.307 333.485 359.307 334.669V367.688C359.307 368.74 358.518 370.056 357.598 370.714L327.353 388.21C326.433 388.736 325.644 388.341 325.644 387.157V354.138C325.644 352.954 326.433 351.639 327.353 351.113Z" fill="#14B86E"/>
<path opacity="0.3" d="M327.353 351.113L357.598 333.616C358.518 333.09 359.307 333.485 359.307 334.669V367.688C359.307 368.74 358.518 370.056 357.598 370.714L327.353 388.21C326.433 388.736 325.644 388.341 325.644 387.157V354.138C325.644 352.954 326.433 351.639 327.353 351.113Z" fill="black"/>
<path d="M352.995 391.893L252.793 449.775C251.873 450.302 251.084 449.907 251.084 448.723V446.487C251.084 445.434 251.873 444.119 252.793 443.461L352.995 385.579C353.915 385.052 354.704 385.447 354.704 386.631V388.867C354.704 390.051 354.047 391.367 352.995 391.893Z" fill="#E0E0E0"/>
<path d="M253.451 461.747L353.652 403.864C354.573 403.338 355.23 402.023 355.099 400.97C355.099 400.312 354.967 399.655 354.967 398.997C354.836 397.944 354.047 397.418 353.126 398.076L253.056 455.958C252.136 456.485 251.347 457.8 251.479 458.853C251.479 459.51 251.61 460.168 251.61 460.826C251.61 461.878 252.399 462.273 253.451 461.747Z" fill="#E0E0E0"/>
<path d="M308.549 442.146L247.271 477.664C246.35 478.19 245.824 479.506 246.087 480.558C250.821 495.029 260.158 507.658 273.044 516.209C273.965 516.866 275.411 516.866 276.463 516.34L337.873 480.953C338.793 480.427 338.793 479.506 337.873 478.848C324.986 470.297 315.518 457.669 310.784 443.198C310.521 442.014 309.601 441.619 308.549 442.146Z" fill="#14B86E"/>
<path opacity="0.8" d="M308.549 442.146L247.271 477.664C246.35 478.19 245.824 479.506 246.087 480.558C250.821 495.029 260.158 507.658 273.044 516.209C273.965 516.866 275.411 516.866 276.463 516.34L337.873 480.953C338.793 480.427 338.793 479.506 337.873 478.848C324.986 470.297 315.518 457.669 310.784 443.198C310.521 442.014 309.601 441.619 308.549 442.146Z" fill="white"/>
<path opacity="0.8" d="M338.004 478.717C334.059 476.086 330.377 472.928 327.09 469.64C316.833 468.85 300.527 465.43 300.527 465.43L295.794 481.611L306.708 485.426C297.372 486.215 268.705 479.243 268.705 479.243C266.601 488.978 266.733 505.816 266.864 511.341C268.837 513.051 270.941 514.63 273.176 516.077C274.096 516.735 275.543 516.735 276.595 516.209L338.004 480.821C338.793 480.295 338.793 479.374 338.004 478.717Z" fill="#14B86E"/>
<path opacity="0.8" d="M301.448 458.195C302.5 460.168 305.525 460.957 307.497 459.773C309.47 458.589 309.996 455.958 308.944 453.985C307.892 452.012 305.13 450.959 303.158 452.143C301.185 453.327 300.396 456.221 301.448 458.195Z" fill="#14B86E"/>
<path d="M334.191 452.143L369.695 431.621C370.615 431.095 370.878 429.911 370.352 428.99C369.169 427.149 367.985 425.176 366.933 423.202C366.408 422.281 365.356 421.887 364.304 422.413L328.799 442.935C327.879 443.461 327.484 444.777 328.01 445.697C329.062 447.671 330.114 449.644 331.429 451.486C331.955 452.406 333.27 452.67 334.191 452.143Z" fill="#14B86E"/>
<path d="M334.454 464.246L382.845 436.226C383.766 435.7 383.897 434.647 383.24 433.726C382.845 433.332 382.582 432.937 382.188 432.542C381.53 431.753 380.215 431.49 379.163 432.016L330.904 460.168C329.983 460.694 329.72 461.878 330.509 462.667C330.772 463.062 331.167 463.457 331.561 463.851C332.219 464.641 333.534 464.772 334.454 464.246Z" fill="#E0E0E0"/>
<path d="M338.268 470.429C338.662 470.824 339.188 471.218 339.583 471.481C340.372 472.139 341.95 472.271 342.87 471.744L391.261 443.856C392.182 443.33 392.313 442.277 391.393 441.619C390.867 441.225 390.472 440.83 390.078 440.435C389.289 439.778 387.842 439.646 386.922 440.172L338.531 468.061C337.61 468.587 337.479 469.64 338.268 470.429Z" fill="#E0E0E0"/>
<path d="M313.02 507.526L374.429 472.008C375.35 471.481 376.928 471.481 377.848 472.008L379.821 473.06C380.741 473.586 380.741 474.507 379.821 475.033L318.411 510.552C317.491 511.078 315.913 511.078 314.992 510.552L313.02 509.5C312.099 508.842 312.099 508.052 313.02 507.526Z" fill="#E0E0E0"/>
<path d="M302.075 257.974L363.353 222.587C364.273 222.061 365.062 222.456 365.062 223.508V231.927C365.062 232.98 364.273 234.295 363.353 234.953L302.075 270.34C301.154 270.866 300.365 270.472 300.365 269.288V260.869C300.365 259.948 301.154 258.632 302.075 257.974Z" fill="#FAFAFA"/>
<path d="M301.285 271.261C301.022 271.261 300.76 271.13 300.497 270.998C299.971 270.735 299.708 270.077 299.708 269.288V260.869C299.708 259.553 300.628 257.974 301.68 257.317L362.958 221.93C363.615 221.535 364.273 221.535 364.799 221.798C365.325 222.061 365.588 222.719 365.588 223.508V231.927C365.588 233.243 364.667 234.822 363.615 235.479L302.337 270.866C301.943 271.13 301.68 271.261 301.285 271.261ZM302.337 258.632C301.548 259.027 301.022 260.211 301.022 261V269.419C301.022 269.682 301.154 269.946 301.154 269.946C301.285 269.946 301.417 269.946 301.68 269.814L362.958 234.427C363.747 234.032 364.273 232.848 364.273 232.059V223.64C364.273 223.377 364.141 223.114 364.141 223.114C364.01 223.114 363.878 223.113 363.615 223.245L302.337 258.632Z" fill="#E0E0E0"/>
<path d="M302.075 276.655L363.353 241.267C364.273 240.741 365.062 241.136 365.062 242.188V250.607C365.062 251.66 364.273 252.975 363.353 253.633L302.075 289.02C301.154 289.546 300.365 289.152 300.365 287.968V279.549C300.365 278.496 301.154 277.181 302.075 276.655Z" fill="#FAFAFA"/>
<path d="M301.285 289.81C301.022 289.81 300.76 289.678 300.497 289.546C299.971 289.283 299.708 288.626 299.708 287.836V279.417C299.708 278.102 300.628 276.523 301.68 275.865L362.958 240.478C363.615 240.083 364.273 240.083 364.799 240.346C365.325 240.61 365.588 241.267 365.588 242.057V250.476C365.588 251.791 364.667 253.37 363.615 254.028L302.337 289.415C301.943 289.678 301.68 289.81 301.285 289.81ZM364.141 241.662C364.01 241.662 363.878 241.662 363.747 241.794L302.469 277.181C301.68 277.575 301.154 278.759 301.154 279.549V287.968C301.154 288.231 301.285 288.494 301.285 288.494C301.417 288.494 301.548 288.494 301.811 288.362L363.089 252.975C363.878 252.581 364.404 251.397 364.404 250.607V242.188C364.404 241.925 364.273 241.662 364.141 241.662Z" fill="#E0E0E0"/>
<path d="M140.233 508.184L151.805 501.475C151.805 501.475 155.749 476.349 151.805 454.643C146.282 424.123 125.242 413.994 117.615 417.282C110.12 420.44 108.542 429.648 122.612 447.013C131.028 457.274 139.838 479.769 140.233 508.184Z" fill="#14B86E"/>
<g opacity="0.2">
<path opacity="0.2" d="M140.233 508.184L151.805 501.475C151.805 501.475 155.749 476.349 151.805 454.643C146.282 424.123 125.242 413.994 117.615 417.282C110.12 420.44 108.542 429.648 122.612 447.013C131.028 457.274 139.838 479.769 140.233 508.184Z" fill="black"/>
</g>
<path d="M145.493 495.292C144.967 495.292 144.704 494.897 144.836 494.503C148.123 465.693 135.894 434.647 122.613 422.281C122.35 422.018 122.35 421.624 122.613 421.361C122.876 421.097 123.27 421.097 123.533 421.361C137.077 433.989 149.438 465.562 146.151 494.766C146.151 495.029 145.888 495.292 145.493 495.292Z" fill="white"/>
<path d="M114.722 523.049C113.276 523.97 109.988 522.391 108.805 521.602C106.701 520.287 104.991 518.313 103.808 516.208C102.493 513.709 102.098 510.946 102.361 508.052C102.493 506.605 102.887 505.158 103.282 503.711C103.676 502.264 104.071 500.949 104.334 499.502C104.728 498.054 105.123 496.607 104.86 495.292C104.465 492.398 101.835 490.425 99.4683 488.846C96.8384 487.004 94.0769 484.505 94.0769 481.084C94.0769 478.453 95.3919 475.954 96.9698 473.718C98.5478 471.613 100.52 469.64 101.967 467.403C103.019 465.825 103.808 463.851 103.545 462.01C103.413 460.826 102.887 459.773 102.361 458.721C101.046 456.484 99.4683 454.511 98.5478 452.012C97.6273 449.644 97.7588 446.618 99.5998 444.776C101.178 443.329 103.413 443.066 105.517 443.198C109.199 443.329 112.75 445.96 115.643 447.934C118.535 449.907 120.771 452.67 124.19 453.854C128.529 455.432 134.315 454.511 137.208 458.984C139.707 462.799 137.866 467.14 137.603 471.218C137.208 477.796 143.389 480.295 146.413 485.031C147.465 486.61 147.728 488.451 147.596 490.293C147.465 493.45 146.939 495.687 145.624 499.238C144.44 502.133 140.759 508.052 140.759 508.052C140.627 508.184 114.985 522.918 114.722 523.049Z" fill="#14B86E"/>
<path d="M129.976 514.63C129.582 514.63 129.319 514.367 129.319 513.972C129.845 486.873 116.3 457.142 106.833 448.591C106.57 448.328 106.57 447.934 106.833 447.671C107.095 447.407 107.49 447.407 107.753 447.671C117.484 456.353 131.16 486.478 130.634 513.972C130.634 514.367 130.371 514.63 129.976 514.63Z" fill="white"/>
<path d="M125.242 482.663C125.11 482.663 125.11 482.663 124.979 482.663C116.168 480.164 105.386 479.901 105.254 479.901C104.86 479.901 104.597 479.638 104.597 479.243C104.597 478.848 104.86 478.585 105.254 478.585C105.386 478.585 116.431 478.848 125.373 481.348C125.768 481.479 125.899 481.874 125.899 482.137C125.768 482.4 125.505 482.663 125.242 482.663Z" fill="white"/>
<g style="mix-blend-mode:overlay">
<path d="M268.518 427.825C278.934 422.282 282.89 409.341 277.354 398.921C271.817 388.5 258.885 384.546 248.469 390.088C238.052 395.631 234.096 408.572 239.633 418.993C245.169 429.414 258.101 433.368 268.518 427.825Z" fill="#757575"/>
<path fill-rule="evenodd" clip-rule="evenodd" d="M250.568 410.037C252.077 409.234 252.336 409.096 252.336 409.096L251.622 407.752L249.634 408.81C248.675 409.32 247.958 410.246 247.626 411.31C247.321 412.31 247.377 413.44 247.919 414.462C248.529 415.609 249.463 416.323 250.498 416.639C251.613 416.973 252.851 416.839 253.936 416.262L257.221 414.514C257.425 414.405 257.518 414.315 257.532 414.227C257.549 414.127 257.494 413.985 257.394 413.796L253.773 406.981C253.593 406.643 253.55 406.333 253.607 406.081C253.65 405.876 253.761 405.706 253.901 405.571C254.037 405.448 254.206 405.369 254.393 405.34C254.658 405.289 254.958 405.342 255.213 405.498L263.712 410.777C263.846 410.857 263.97 410.882 264.069 410.859C264.124 410.85 264.164 410.829 264.199 410.8C264.226 410.776 264.241 410.748 264.256 410.719C264.271 410.671 264.253 410.6 264.212 410.521L260.44 403.423C260.277 403.116 260.246 402.83 260.316 402.581C260.371 402.381 260.478 402.203 260.622 402.076C260.766 401.949 260.943 401.864 261.125 401.828C261.399 401.773 261.694 401.818 261.961 401.978L270.367 407.195C270.517 407.287 270.665 407.319 270.776 407.3C270.832 407.291 270.887 407.262 270.93 407.229C270.965 407.2 270.984 407.16 271.002 407.119C271.017 407.051 271.006 406.956 270.952 406.854L265.995 397.523L264.627 398.25L267.584 403.816C267.584 403.816 265.841 402.717 262.971 400.957C260.146 399.264 257.924 401.797 259.051 403.92L260.889 407.379C260.889 407.379 259.193 406.254 256.33 404.49C253.498 402.801 251.228 405.36 252.356 407.483L255.397 413.205C255.505 413.41 255.472 413.689 255.229 413.819L253.413 414.785C249.48 416.868 247.281 411.837 250.568 410.037Z" fill="white"/>
<path fill-rule="evenodd" clip-rule="evenodd" d="M266.643 397.186L271.603 406.516C271.749 406.791 271.772 407.061 271.718 407.301C271.667 407.49 271.564 407.656 271.419 407.783C271.283 407.906 271.106 407.99 270.912 408.023C270.634 408.069 270.314 408.018 269.999 407.822L261.586 402.598C261.493 402.536 261.385 402.523 261.282 402.537C261.219 402.551 261.156 402.584 261.113 402.617C261.07 402.65 261.043 402.695 261.025 402.755C261.007 402.835 261.017 402.95 261.089 403.084L264.862 410.182C264.995 410.433 265.017 410.683 264.963 410.904C264.92 411.088 264.82 411.242 264.68 411.357C264.547 411.468 264.386 411.544 264.204 411.58C263.938 411.631 263.638 411.578 263.339 411.395L254.837 406.116C254.736 406.059 254.624 406.038 254.533 406.056C254.478 406.066 254.43 406.091 254.395 406.119C254.368 406.144 254.341 406.188 254.334 406.232C254.313 406.325 254.336 406.463 254.428 406.636L258.051 413.451C258.226 413.781 258.313 414.078 258.257 414.37C258.197 414.674 257.984 414.938 257.568 415.16L254.283 416.907C253.033 417.571 251.591 417.723 250.296 417.333C249.084 416.97 247.984 416.133 247.278 414.805C246.634 413.594 246.577 412.273 246.93 411.098C247.305 409.85 248.158 408.761 249.29 408.159L251.278 407.102L250.539 405.71L248.982 406.538C244.943 408.686 244.422 412.845 246.06 415.775C247.573 418.469 251.201 420.27 255.154 418.167L258.51 416.383C259.901 415.643 260.35 414.325 259.54 412.8L257.906 409.727C257.906 409.727 261.331 411.847 262.689 412.618C264.841 413.993 267.609 411.937 266.297 409.469L264.555 406.191C264.555 406.191 268.028 408.286 269.338 409.082C271.566 410.447 274.305 408.375 272.946 405.932L267.932 396.5L266.643 397.186Z" fill="white"/>
</g>
<g style="mix-blend-mode:soft-light">
<path d="M351.521 377.557C360.646 372.702 364.112 361.365 359.262 352.236C354.412 343.107 343.082 339.642 333.957 344.498C324.832 349.354 321.366 360.691 326.216 369.82C331.066 378.949 342.396 382.413 351.521 377.557Z" fill="#757575"/>
<path d="M347.467 361.894C347.515 361.984 347.562 362.073 347.61 362.163C347.833 362.583 348.053 363.014 348.283 363.43C348.363 363.581 348.323 363.656 348.179 363.733C346.74 364.498 345.308 365.26 343.869 366.026C343.725 366.103 343.637 366.088 343.557 365.936C343.293 365.423 343.022 364.913 342.744 364.407C342.66 364.249 342.693 364.161 342.848 364.087C343.017 364.006 343.185 363.908 343.354 363.827C343.482 363.768 343.518 363.686 343.449 363.555C343.123 362.943 342.808 362.333 342.469 361.727C342.199 361.253 341.773 361.117 341.262 361.301C340.363 361.62 340.025 362.48 340.468 363.331C340.706 363.796 340.958 364.253 341.2 364.725C341.277 364.87 341.358 364.906 341.506 364.819C341.668 364.724 341.847 364.646 342.005 364.545C342.167 364.45 342.254 364.465 342.346 364.637C342.606 365.144 342.873 365.646 343.147 366.145C343.231 366.304 343.202 366.381 343.043 366.465C341.635 367.206 340.241 367.956 338.837 368.704C338.396 368.938 338.463 368.964 338.229 368.524C337.999 368.09 337.771 367.645 337.527 367.219C337.425 367.043 337.451 366.942 337.64 366.867C337.799 366.8 337.95 366.702 338.105 366.628C338.24 366.566 338.259 366.485 338.182 366.358C337.729 365.521 337.29 364.678 336.847 363.844C336.781 363.72 336.707 363.698 336.594 363.767C336.425 363.865 336.243 363.954 336.074 364.052C335.947 364.129 335.866 364.092 335.8 363.968C335.518 363.438 335.244 362.904 334.955 362.378C334.886 362.247 334.925 362.172 335.049 362.107C336.192 361.498 337.332 360.901 338.471 360.286C338.636 360.198 338.714 360.245 338.788 360.4C338.931 360.703 339.095 360.996 339.246 361.296C339.268 361.337 339.303 361.371 339.347 361.436C339.38 361.366 339.41 361.323 339.42 361.274C339.627 360.236 340.24 359.495 341.12 358.956C341.621 358.654 342.16 358.42 342.747 358.329C343.813 358.159 344.646 358.563 345.18 359.534C345.614 360.318 346.028 361.114 346.435 361.913C346.534 362.099 346.618 362.125 346.783 362.02C346.934 361.922 347.1 361.851 347.292 361.749C347.224 361.67 347.181 361.622 347.138 361.575C346.33 360.785 345.878 359.834 345.905 358.689C345.929 357.837 346.263 357.085 346.808 356.45C347.9 355.18 349.243 354.351 350.937 354.182C352.138 354.065 353.095 354.554 353.826 355.498C353.934 355.635 353.93 355.726 353.772 355.828C353.072 356.288 352.386 356.759 351.693 357.234C351.546 357.339 351.455 357.317 351.367 357.169C351.291 357.042 351.197 356.915 351.1 356.799C350.586 356.18 349.915 356.148 349.315 356.697C348.978 357.009 348.89 357.392 348.994 357.822C349.191 358.574 349.55 359.249 350.06 359.843C350.476 360.328 351.043 360.398 351.638 360.055C352.205 359.726 352.402 359.233 352.199 358.634C352.157 358.506 352.183 358.439 352.301 358.377C353.051 357.978 353.805 357.585 354.552 357.179C354.744 357.077 354.792 357.184 354.838 357.336C355.19 358.58 354.917 359.661 354.008 360.578C353.355 361.243 352.601 361.768 351.719 362.07C350.606 362.45 349.471 362.674 348.31 362.267C348.028 362.17 347.763 362.019 347.491 361.89C347.498 361.869 347.481 361.887 347.467 361.894Z" fill="white"/>
<path d="M330.293 361.784C331.236 361.282 332.186 360.776 333.126 360.267C333.305 360.172 333.399 360.184 333.495 360.38C333.789 360.966 334.096 361.545 334.414 362.109C334.527 362.305 334.491 362.404 334.29 362.492C334.049 362.603 333.826 362.748 333.585 362.859C333.423 362.937 333.421 363.017 333.498 363.162C334.277 364.629 335.06 366.102 335.84 367.57C335.917 367.714 335.994 367.726 336.131 367.653C336.383 367.51 336.641 367.382 336.892 367.239C337.026 367.159 337.11 367.185 337.184 367.323C337.455 367.85 337.733 368.373 338.018 368.893C338.095 369.038 338.055 369.112 337.913 369.178C335.992 370.2 334.068 371.216 332.158 372.241C332.013 372.318 331.946 372.292 331.873 372.154C331.602 371.627 331.317 371.107 331.039 370.584C330.973 370.46 330.985 370.383 331.116 370.313C331.374 370.184 331.625 370.042 331.883 369.913C332.032 369.843 332.064 369.755 331.984 369.604C331.201 368.147 330.422 366.68 329.653 365.216C329.561 365.044 329.474 365.029 329.312 365.124C329.079 365.266 328.827 365.373 328.593 365.515C328.459 365.596 328.378 365.577 328.305 365.439C327.986 364.822 327.664 364.216 327.332 363.607C327.248 363.448 327.263 363.378 327.428 363.29C328.396 362.802 329.343 362.289 330.293 361.784Z" fill="white"/>
<path d="M357.632 357.477C357.929 358.035 357.688 358.896 357.131 359.193C356.676 359.435 355.81 359.366 355.433 358.674C355.104 358.072 355.33 357.316 355.939 356.983C356.538 356.664 357.321 356.892 357.632 357.477Z" fill="white"/>
</g>
<g style="mix-blend-mode:overlay">
<path d="M200.387 322.086C214.997 314.311 220.546 296.16 212.781 281.543C205.015 266.927 186.876 261.38 172.265 269.155C157.655 276.93 152.106 295.081 159.872 309.698C167.637 324.314 185.777 329.86 200.387 322.086Z" fill="#757575"/>
<path fill-rule="evenodd" clip-rule="evenodd" d="M162.567 304.118L164.463 303.109C165.51 302.552 165.937 302.452 166.71 302.762C167.149 302.896 167.436 303.224 167.641 303.61C167.893 304.084 167.905 304.559 167.484 305.151C168.731 304.968 169.188 305.828 169.34 306.115C169.592 306.589 169.709 307.262 169.47 307.743C169.149 308.523 168.926 308.769 167.878 309.326L165.894 310.382L162.567 304.118ZM165.436 305.633L165.91 305.38C166.097 305.281 166.483 305.075 166.231 304.601C165.979 304.127 165.604 304.326 165.406 304.432L164.932 304.684L165.436 305.633ZM166.748 308.103L167.409 307.751C167.597 307.651 168.071 307.399 167.766 306.825C167.461 306.252 166.987 306.504 166.8 306.604L166.139 306.956L166.748 308.103Z" fill="white"/>
<path fill-rule="evenodd" clip-rule="evenodd" d="M167.408 301.542L168.83 300.786L172.158 307.05L170.736 307.806L167.408 301.542Z" fill="white"/>
<path fill-rule="evenodd" clip-rule="evenodd" d="M172.521 300.649C174.23 299.739 175.693 300.658 176.303 301.805C176.906 302.94 176.901 304.768 175.193 305.677C173.484 306.586 171.88 305.615 171.276 304.479C170.673 303.344 170.824 301.552 172.521 300.649ZM174.49 304.354C175.063 304.049 175.285 303.322 174.881 302.561C174.529 301.9 173.803 301.678 173.23 301.983C172.569 302.335 172.347 303.061 172.698 303.723C173.102 304.484 173.828 304.706 174.49 304.354Z" fill="white"/>
<path fill-rule="evenodd" clip-rule="evenodd" d="M177.837 297.822C179.545 296.913 181.097 297.784 181.706 298.931C182.31 300.067 182.217 301.941 180.508 302.85C178.8 303.759 177.195 302.788 176.592 301.653C175.988 300.517 176.128 298.731 177.837 297.822ZM179.805 301.527C180.378 301.222 180.688 300.449 180.284 299.688C179.933 299.026 179.108 298.857 178.545 299.156C177.972 299.461 177.662 300.234 178.014 300.896C178.418 301.657 179.243 301.826 179.805 301.527Z" fill="white"/>
<path fill-rule="evenodd" clip-rule="evenodd" d="M180.778 296.496L182.101 295.793L182.352 296.267C182.352 296.027 182.475 295.353 183.324 294.901C183.698 294.702 184.371 294.584 185.097 295.047C185.132 294.42 185.407 293.793 186.167 293.388C186.454 293.236 187.069 293.036 187.654 293.205C188.281 293.48 188.532 293.714 189.083 294.75L190.442 297.309L189.02 298.065L187.708 295.595C187.509 295.22 187.151 294.548 186.49 294.9C185.641 295.351 185.993 296.013 186.145 296.3L187.504 298.858L186.181 299.562L184.822 297.003C184.723 296.816 184.318 296.055 183.558 296.46C182.797 296.865 183.201 297.625 183.354 297.912L184.666 300.382L183.244 301.139L180.778 296.496Z" fill="white"/>
<path fill-rule="evenodd" clip-rule="evenodd" d="M187.7 290.748L189.122 289.991L190.182 291.987C190.351 291.161 191.013 290.809 191.2 290.71C192.247 290.152 193.922 290.11 194.883 291.919C195.791 293.628 195.007 295.134 193.872 295.738C193.21 296.09 192.537 295.967 192.197 295.78L192.098 295.833L192.35 296.307L191.027 297.011L187.7 290.748ZM192.981 294.515C193.643 294.163 193.812 293.337 193.461 292.675C193.156 292.102 192.383 291.792 191.722 292.144C190.961 292.548 190.891 293.321 191.19 293.884C191.541 294.545 192.221 294.919 192.981 294.515Z" fill="white"/>
<path fill-rule="evenodd" clip-rule="evenodd" d="M200.598 290.093C200.563 290.72 200.475 291.247 200.253 291.734C199.931 292.273 199.656 292.659 199.083 292.964C197.76 293.668 196.01 293.143 195.255 291.72C194.599 290.485 194.99 288.693 196.412 287.936C197.833 287.179 199.484 287.758 200.24 289.18C200.339 289.368 200.392 289.467 200.439 289.555L196.934 291.421C197.338 291.941 197.958 291.965 198.432 291.713C198.906 291.46 198.994 291.173 199.082 290.886L200.592 290.082L200.598 290.093ZM198.607 289.328C198.356 289.094 197.781 288.678 197.021 289.083C196.359 289.435 196.377 290.161 196.425 290.489L198.607 289.328Z" fill="white"/>
<path fill-rule="evenodd" clip-rule="evenodd" d="M199.543 286.51L200.866 285.806L201.118 286.28C201.252 286.082 201.574 285.302 202.189 285.102L202.892 286.426C202.318 286.731 201.657 287.083 202.061 287.844L203.421 290.402L201.998 291.159L199.532 286.516L199.543 286.51Z" fill="white"/>
<path fill-rule="evenodd" clip-rule="evenodd" d="M209.681 286.35C210.033 287.012 210.438 288.013 210.455 288.499C210.385 289.271 209.824 290.291 208.589 290.708C206.927 291.465 206.055 290.968 205.551 290.26L207.072 289.45C207.512 289.825 207.986 289.572 208.085 289.52C208.845 289.115 209.168 288.816 208.365 287.305L208.312 287.206C208.224 287.493 208.09 288.173 207.341 288.572C206.106 289.229 204.414 288.785 203.659 287.363C202.803 285.753 203.435 284.2 204.669 283.543C205.243 283.238 205.816 283.173 206.297 283.413L206.098 283.038L207.52 282.281L209.681 286.35ZM206.825 287.149C207.487 286.797 207.709 286.07 207.357 285.409C206.953 284.648 206.227 284.426 205.566 284.778C204.992 285.083 204.682 285.856 205.034 286.518C205.438 287.279 206.252 287.454 206.825 287.149Z" fill="white"/>
</g>
<g style="mix-blend-mode:soft-light">
<path d="M310.23 401.685C319.518 396.743 323.045 385.204 318.108 375.912C313.172 366.621 301.641 363.095 292.353 368.037C283.065 372.979 279.538 384.518 284.475 393.81C289.411 403.101 300.942 406.627 310.23 401.685Z" fill="#757575"/>
<path fill-rule="evenodd" clip-rule="evenodd" d="M298.382 391.686C298.593 391.575 299.624 391.062 299.817 390.986L299.698 390.762C299.453 390.892 299.02 391.059 298.865 391.106L294.768 383.394C294.886 383.296 295.274 383.026 295.519 382.896L295.4 382.672C295.225 382.783 294.224 383.351 294.013 383.463C293.803 383.575 292.772 384.088 292.583 384.171L292.702 384.395C292.947 384.265 293.376 384.09 293.535 384.051L297.632 391.762C297.513 391.861 297.126 392.13 296.881 392.261L297 392.485C297.171 392.367 298.172 391.798 298.382 391.686Z" fill="white"/>
<path fill-rule="evenodd" clip-rule="evenodd" d="M289.534 386.447C289.709 386.354 291.671 385.31 292.337 384.956C292.466 385.148 292.931 386.006 292.931 386.006L293.05 385.943L292.208 384.359C292.034 384.47 288.874 386.187 288.664 386.299C288.454 386.411 285.265 388.072 285.075 388.155L285.917 389.739L286.036 389.676C286.036 389.676 285.581 388.82 285.498 388.595C286.163 388.241 288.125 387.197 288.301 387.104L292.282 394.597C292.164 394.696 291.776 394.965 291.531 395.096L291.65 395.32C291.825 395.209 292.822 394.633 293.032 394.521C293.243 394.41 294.274 393.897 294.467 393.821L294.348 393.597C294.103 393.727 293.67 393.894 293.515 393.941L289.534 386.447Z" fill="white"/>
<path fill-rule="evenodd" clip-rule="evenodd" d="M300.743 390.124C300.653 389.669 298.557 382.863 297.957 381.294L298.412 381.052C299.05 381.881 303.698 385.504 304.562 386.096C304.531 385.447 304.003 379.614 303.758 378.207L304.2 377.972C305.102 379.263 309.932 385.208 309.932 385.208C310.08 385.165 310.47 385.02 310.716 384.89L310.835 385.114C310.645 385.197 309.61 385.702 309.4 385.814C309.19 385.926 308.189 386.495 308.018 386.613L307.899 386.388C308.144 386.258 308.524 385.993 308.65 385.89C308.65 385.89 305.388 381.763 304.901 381.186C304.969 381.636 305.394 388.018 305.394 388.018L305.002 388.227C304.458 387.797 299.861 384.201 299.644 383.929C299.861 384.794 301.106 388.727 301.454 389.755C301.581 389.723 302.066 389.501 302.262 389.397L302.381 389.621C302.226 389.686 301.549 390.001 301.374 390.094C301.206 390.184 300.317 390.693 300.188 390.788L300.069 390.564C300.254 390.456 300.656 390.215 300.743 390.124Z" fill="white"/>
<path fill-rule="evenodd" clip-rule="evenodd" d="M311.739 384.248C311.621 384.347 311.234 384.616 310.988 384.746L311.107 384.97C311.282 384.86 312.924 383.941 313.142 383.825C313.352 383.713 317.319 381.638 317.512 381.562L316.671 379.978L316.551 380.041C316.551 380.041 317.006 380.897 317.09 381.122C316.424 381.476 313.039 383.277 312.864 383.37L308.998 376.094C309.173 376.001 312.432 374.267 313.091 373.916C313.22 374.108 313.685 374.967 313.685 374.967L313.804 374.904L312.962 373.319C312.787 373.43 308.983 375.491 308.773 375.602C308.563 375.714 306.88 376.574 306.69 376.657L306.81 376.881C307.055 376.75 307.484 376.576 307.642 376.537L311.739 384.248Z" fill="white"/>
<path fill-rule="evenodd" clip-rule="evenodd" d="M311.052 379.946C311.052 379.946 314.222 378.232 314.506 378.108C314.583 378.184 314.913 378.619 314.998 378.745L315.152 378.663C315.096 378.576 314.714 377.889 314.628 377.728C314.539 377.56 314.188 376.865 314.146 376.771L313.992 376.853C314.045 376.986 314.225 377.511 314.245 377.617C313.983 377.783 310.791 379.455 310.791 379.455L311.052 379.946Z" fill="white"/>
</g>
<g style="mix-blend-mode:color-burn">
<path d="M123.333 409.863C133.749 404.32 137.705 391.379 132.169 380.958C126.632 370.537 113.7 366.583 103.284 372.126C92.8671 377.669 88.911 390.61 94.4475 401.031C99.9839 411.451 112.916 415.406 123.333 409.863Z" fill="#757575"/>
<path d="M119.776 378.883C119.277 379.653 118.538 380.348 117.794 380.845C118.366 379.835 118.535 378.636 118.307 377.446C117.772 378.336 117.116 379.189 116.22 379.968C114.975 379.522 113.661 379.515 112.482 380.142C110.203 381.354 109.362 384.323 110.699 386.839C110.866 387.154 111.075 387.547 111.32 387.82C107.78 389.502 103.754 389.324 100.291 387.738C100.232 388.576 100.493 389.446 100.952 390.311C101.788 391.883 103.205 392.844 104.723 393.045C104.016 393.421 103.262 393.52 102.545 393.498L102.587 393.576C103.715 395.699 106.09 396.755 108.226 396.223C107.954 396.469 107.603 396.757 107.21 396.966C106.974 397.091 106.66 397.259 106.382 397.305C107.893 398.821 110.055 399.285 111.862 398.323C111.074 400.255 109.643 401.925 107.757 402.928C107.443 403.095 107.129 403.262 106.694 403.393C109.17 403.689 111.788 403.305 114.145 402.051C121.767 397.995 122.338 389.017 119.205 383.12C119.121 382.963 118.996 382.727 118.913 382.57C119.438 381.282 119.727 380.119 119.776 378.883Z" fill="white"/>
</g>
<g style="mix-blend-mode:color-burn">
<path d="M123.333 298.31C112.92 303.851 99.9819 299.895 94.4475 289.478C88.913 279.061 92.8709 266.114 103.284 260.573C113.696 255.032 126.634 258.988 132.169 269.405C137.703 279.822 133.745 292.769 123.333 298.31Z" fill="#757575"/>
<path d="M122.08 266.986C121.221 266.051 119.917 265.646 118.678 265.932C116.449 266.443 108.615 270.612 108.615 270.612C108.615 270.612 100.78 274.781 99.1108 276.345C98.1887 277.208 97.7911 278.509 98.081 279.757C98.5986 282.002 100.779 286.106 100.779 286.106C100.779 286.106 102.959 290.21 104.53 291.895C105.389 292.829 106.693 293.234 107.932 292.948C110.169 292.434 117.996 288.269 117.996 288.269C117.996 288.269 125.831 284.1 127.5 282.536C128.422 281.672 128.819 280.372 128.529 279.124C128.012 276.878 125.831 272.775 125.831 272.775C125.831 272.775 123.651 268.671 122.08 266.986ZM112.723 284.53L108.764 277.077L117.289 277.32L112.723 284.53Z" fill="white"/>
</g>
<path d="M548.319 193.206L438.443 240.965C435.498 242.247 432.141 240.491 431.482 237.357L416.509 164.643C416.313 163.641 416.409 162.638 416.786 161.735C417.292 160.452 418.321 159.4 419.683 158.901L532.098 116.346C533.409 115.841 534.788 115.946 535.95 116.456C537.406 117.102 538.527 118.433 538.848 120.153L551.265 187.662C551.69 189.979 550.468 192.281 548.319 193.206Z" fill="#14B86E"/>
<path d="M433.387 240.382L496.191 177.022L434.125 240.844C434.125 240.844 433.577 240.524 433.387 240.382Z" fill="#14B86E"/>
<path d="M551.284 189.222L499.143 176.249L551.186 189.777C551.186 189.777 551.264 189.391 551.284 189.222Z" fill="#94DD8B"/>
<path opacity="0.6" d="M535.936 116.454L500.89 183.06L416.778 161.73C417.284 160.447 418.313 159.395 419.675 158.897L532.084 116.343C533.395 115.839 534.774 115.944 535.936 116.454Z" fill="#14B86E"/>
<path d="M535.936 116.454L500.685 178.791L416.778 161.73C417.284 160.446 418.313 159.395 419.675 158.896L532.084 116.343C533.395 115.839 534.774 115.944 535.936 116.454Z" fill="#94DD8B"/>
<path d="M535.936 116.454L500.434 177.972L416.778 161.729C417.284 160.446 418.313 159.394 419.675 158.896L532.084 116.343C533.395 115.839 534.774 115.944 535.936 116.454Z" fill="#14B86E"/>
<path d="M539.602 161.016L522.874 168.279C522.423 168.468 521.921 168.205 521.82 167.729L519.549 156.661C519.515 156.503 519.533 156.35 519.582 156.218C519.656 156.02 519.811 155.866 520.026 155.787L537.129 149.306C537.328 149.225 537.531 149.249 537.712 149.321C537.942 149.415 538.107 149.623 538.146 149.885L540.043 160.155C540.122 160.525 539.927 160.881 539.602 161.016Z" fill="#94DD8B"/>
<g style="mix-blend-mode:soft-light">
<path d="M468.747 225.907C485.655 219.228 493.952 200.1 487.279 183.183C480.607 166.265 461.491 157.965 444.583 164.644C427.675 171.323 419.378 190.451 426.051 207.368C432.723 224.285 451.839 232.585 468.747 225.907Z" fill="#757575"/>
<path fill-rule="evenodd" clip-rule="evenodd" d="M443.837 191.132C444.218 190.864 444.647 190.68 445.093 190.577C445.59 190.455 446.11 190.426 446.624 190.533C446.77 190.903 446.916 191.273 447.062 191.644C446.731 191.553 446.398 191.493 446.067 191.476C445.619 191.461 445.172 191.564 444.761 191.756C444.562 191.849 444.391 191.976 444.253 192.148C444.163 192.258 444.096 192.387 444.078 192.527C444.062 192.711 444.114 192.882 444.205 193.037C444.286 193.168 444.418 193.278 444.568 193.322C444.772 193.389 444.98 193.395 445.184 193.388C445.61 193.383 446.043 193.359 446.468 193.353C446.832 193.342 447.211 193.369 447.562 193.511C447.89 193.632 448.185 193.855 448.374 194.149C448.582 194.451 448.718 194.795 448.754 195.15C448.793 195.473 448.72 195.812 448.571 196.107C448.415 196.42 448.164 196.681 447.88 196.896C447.492 197.183 447.05 197.372 446.596 197.492C446.023 197.645 445.414 197.708 444.829 197.571C444.677 197.188 444.532 196.818 444.38 196.435C445.105 196.665 445.905 196.673 446.624 196.404C446.93 196.283 447.227 196.137 447.439 195.89C447.562 195.753 447.639 195.575 447.638 195.384C447.644 195.175 447.55 194.976 447.429 194.818C447.295 194.664 447.099 194.579 446.898 194.555C446.552 194.5 446.21 194.532 445.859 194.538C445.433 194.544 445.023 194.588 444.598 194.52C444.288 194.48 443.965 194.372 443.711 194.177C443.358 193.918 443.133 193.535 443.016 193.124C442.908 192.739 442.946 192.311 443.113 191.95C443.277 191.619 443.541 191.353 443.837 191.132Z" fill="white"/>
<path fill-rule="evenodd" clip-rule="evenodd" d="M469.049 181.499C469.372 181.047 469.855 180.738 470.37 180.55C471.008 180.298 471.711 180.212 472.388 180.357C472.534 180.727 472.68 181.098 472.826 181.468C472.526 181.38 472.223 181.322 471.91 181.313C471.37 181.29 470.829 181.415 470.362 181.689C470.114 181.845 469.879 182.071 469.847 182.364C469.812 182.688 470.01 183.038 470.32 183.151C470.564 183.246 470.836 183.227 471.083 183.218C471.509 183.212 471.929 183.194 472.354 183.188C472.736 183.185 473.126 183.237 473.469 183.397C473.789 183.536 474.055 183.8 474.219 184.103C474.406 184.428 474.539 184.803 474.53 185.19C474.526 185.516 474.417 185.84 474.233 186.119C474.02 186.439 473.721 186.69 473.402 186.89C472.947 187.158 472.427 187.334 471.914 187.418C471.484 187.485 471.033 187.501 470.593 187.395C470.442 187.012 470.296 186.642 470.145 186.259C470.714 186.432 471.325 186.486 471.909 186.358C472.167 186.301 472.414 186.218 472.639 186.115C472.876 186.006 473.111 185.854 473.26 185.633C473.385 185.466 473.435 185.254 473.397 185.048C473.35 184.816 473.211 184.575 472.993 184.47C472.805 184.367 472.578 184.354 472.364 184.335C472.02 184.323 471.661 184.347 471.323 184.348C470.989 184.362 470.655 184.376 470.322 184.315C470.024 184.271 469.714 184.157 469.465 183.975C469.216 183.793 469.042 183.538 468.901 183.254C468.787 183.004 468.707 182.726 468.713 182.443C468.718 182.117 468.846 181.771 469.049 181.499Z" fill="white"/>
<path fill-rule="evenodd" clip-rule="evenodd" d="M475.88 178.555C476.146 178.332 476.439 178.142 476.763 178.029C477.409 177.759 478.133 177.65 478.835 177.786C478.866 177.789 478.876 177.814 478.886 177.84C479.027 178.197 479.168 178.554 479.308 178.912C478.978 178.821 478.627 178.753 478.288 178.754C477.858 178.747 477.411 178.85 477.026 179.032C476.827 179.125 476.643 179.257 476.505 179.429C476.407 179.556 476.338 179.716 476.342 179.877C476.346 180.185 476.538 180.523 476.838 180.61C477.174 180.714 477.535 180.659 477.879 180.671C478.292 180.67 478.689 180.631 479.094 180.649C479.473 180.676 479.847 180.764 480.162 180.964C480.5 181.185 480.74 181.532 480.886 181.903C481.03 182.229 481.071 182.596 480.991 182.953C480.91 183.309 480.728 183.632 480.472 183.881C480.201 184.165 479.869 184.37 479.517 184.524C479.131 184.705 478.703 184.815 478.285 184.877C477.892 184.929 477.48 184.93 477.106 184.842C476.942 184.464 476.809 184.088 476.658 183.706C477.383 183.936 478.195 183.939 478.914 183.67C479.221 183.549 479.529 183.397 479.75 183.133C479.86 183.001 479.937 182.823 479.94 182.645C479.947 182.436 479.848 182.224 479.727 182.066C479.592 181.912 479.402 181.84 479.213 181.811C478.867 181.756 478.508 181.78 478.157 181.786C477.731 181.792 477.321 181.836 476.896 181.768C476.568 181.72 476.227 181.604 475.968 181.397C475.687 181.169 475.487 180.849 475.364 180.499C475.251 180.175 475.232 179.829 475.323 179.498C475.36 179.144 475.598 178.814 475.88 178.555Z" fill="white"/>
<path fill-rule="evenodd" clip-rule="evenodd" d="M453.641 187.162C455.639 187.966 457.629 188.788 459.632 189.604C459.099 188.252 458.565 186.899 458.031 185.546C458.376 185.41 458.72 185.274 459.065 185.138C459.915 187.295 460.766 189.451 461.612 191.596C460.252 191.026 458.91 190.465 457.55 189.896C456.897 189.623 456.244 189.35 455.591 189.077C456.134 190.455 456.673 191.821 457.216 193.199C456.872 193.335 456.528 193.471 456.183 193.607C455.342 191.476 454.492 189.319 453.641 187.162Z" fill="white"/>
<path fill-rule="evenodd" clip-rule="evenodd" d="M428.013 197.398C428.574 197.176 429.122 196.96 429.684 196.738C430.079 196.582 430.457 196.418 430.878 196.325C431.273 196.243 431.68 196.23 432.069 196.356C432.379 196.47 432.651 196.672 432.83 196.941C433.038 197.242 433.179 197.6 433.208 197.972C433.229 198.362 433.099 198.781 432.805 199.045C432.884 199.058 432.953 199.046 433.019 199.064C433.404 199.104 433.769 199.284 434.023 199.553C434.22 199.755 434.369 200.02 434.45 200.298C434.56 200.653 434.581 201.043 434.47 201.397C434.348 201.799 434.054 202.136 433.707 202.377C433.405 202.585 433.078 202.728 432.734 202.864C431.994 203.157 431.254 203.449 430.514 203.741C429.684 201.635 428.848 199.517 428.013 197.398ZM429.426 197.917C429.653 198.491 429.884 199.078 430.111 199.652C430.532 199.486 430.965 199.315 431.386 199.148C431.649 199.03 431.91 198.868 432.056 198.604C432.154 198.403 432.155 198.181 432.087 197.972C432.014 197.75 431.88 197.522 431.675 197.412C431.487 197.309 431.26 197.295 431.054 197.333C430.817 197.367 430.592 197.471 430.375 197.556C430.051 197.67 429.745 197.791 429.426 197.917ZM430.468 200.559C430.71 201.171 430.956 201.797 431.198 202.409C431.644 202.233 432.104 202.051 432.55 201.875C432.805 201.774 433.058 201.63 433.215 201.391C433.361 201.201 433.408 200.946 433.36 200.714C433.303 200.456 433.177 200.211 432.969 200.057C432.801 199.932 432.585 199.87 432.368 199.882C432.177 199.883 431.994 199.941 431.815 200.012C431.374 200.201 430.91 200.369 430.468 200.559Z" fill="white"/>
<path fill-rule="evenodd" clip-rule="evenodd" d="M434.891 194.684C435.248 194.543 435.605 194.402 435.962 194.261C436.395 195.358 436.823 196.443 437.256 197.541C437.407 197.924 437.55 198.324 437.786 198.659C437.983 198.935 438.257 199.181 438.587 199.272C438.918 199.362 439.262 199.3 439.581 199.174C439.9 199.048 440.206 198.853 440.381 198.548C440.533 198.297 440.577 197.999 440.571 197.721C440.552 197.375 440.452 197.045 440.318 196.744C439.84 195.532 439.362 194.319 438.884 193.107C439.241 192.966 439.598 192.825 439.955 192.683C440.454 193.947 440.952 195.21 441.45 196.474C441.669 196.992 441.791 197.564 441.718 198.124C441.662 198.618 441.43 199.078 441.085 199.436C440.698 199.839 440.183 200.102 439.645 200.27C439.277 200.386 438.885 200.438 438.496 200.385C438.216 200.348 437.933 200.268 437.687 200.129C437.387 199.967 437.136 199.742 436.926 199.471C436.688 199.166 436.509 198.824 436.368 198.467C435.882 197.198 435.389 195.948 434.891 194.684Z" fill="white"/>
<path fill-rule="evenodd" clip-rule="evenodd" d="M449.536 188.898C449.893 188.757 450.25 188.616 450.607 188.475C451.443 190.594 452.279 192.713 453.115 194.831C452.762 194.985 452.4 195.113 452.03 195.26C451.207 193.136 450.371 191.017 449.536 188.898Z" fill="white"/>
<path fill-rule="evenodd" clip-rule="evenodd" d="M461.935 184.003C463.21 183.499 464.499 182.99 465.775 182.486C465.9 182.805 466.026 183.124 466.152 183.443C465.221 183.811 464.29 184.179 463.371 184.542C463.572 185.052 463.769 185.55 463.97 186.061C464.799 185.733 465.641 185.4 466.47 185.073C466.596 185.392 466.717 185.698 466.843 186.017C466.014 186.345 465.172 186.677 464.343 187.005C464.599 187.656 464.861 188.32 465.118 188.971C466.049 188.603 466.98 188.235 467.899 187.872C468.025 188.191 468.156 188.523 468.281 188.842C467.006 189.346 465.717 189.855 464.441 190.359C463.762 188.636 463.087 186.926 462.408 185.203C462.252 184.807 462.078 184.404 461.935 184.003Z" fill="white"/>
<path fill-rule="evenodd" clip-rule="evenodd" d="M440.166 203.649C442.146 204.445 444.126 205.241 446.106 206.037C445.582 204.71 445.059 203.383 444.53 202.043C444.875 201.907 445.219 201.77 445.564 201.634C446.399 203.753 447.235 205.872 448.07 207.99C446.085 207.181 444.095 206.36 442.105 205.538C442.638 206.891 443.172 208.244 443.706 209.596C443.361 209.733 443.017 209.869 442.672 210.005C441.837 207.886 440.988 205.773 440.166 203.649Z" fill="white"/>
<path fill-rule="evenodd" clip-rule="evenodd" d="M449.257 200.309C449.59 199.957 450.029 199.724 450.481 199.561C451.09 199.349 451.738 199.271 452.379 199.401C452.525 199.771 452.666 200.128 452.812 200.498C452.481 200.408 452.148 200.348 451.809 200.349C451.366 200.347 450.907 200.454 450.509 200.641C450.315 200.747 450.138 200.861 450 201.034C449.903 201.161 449.833 201.321 449.838 201.481C449.857 201.754 450.011 202.033 450.26 202.141C450.455 202.226 450.695 202.234 450.916 202.235C451.354 202.225 451.775 202.206 452.213 202.195C452.564 202.189 452.913 202.214 453.236 202.322C453.559 202.431 453.843 202.628 454.041 202.904C454.238 203.18 454.394 203.502 454.439 203.839C454.496 204.17 454.453 204.511 454.304 204.806C454.152 205.132 453.919 205.401 453.636 205.616C453.286 205.887 452.887 206.074 452.469 206.21C452.038 206.35 451.582 206.427 451.134 206.413C450.938 206.402 450.742 206.391 450.548 206.349C450.402 205.979 450.256 205.609 450.11 205.239C450.835 205.469 451.63 205.464 452.349 205.195C452.655 205.074 452.964 204.923 453.172 204.664C453.289 204.514 453.374 204.318 453.36 204.132C453.341 203.933 453.265 203.742 453.136 203.601C453.002 203.447 452.798 203.38 452.597 203.356C452.256 203.314 451.927 203.341 451.576 203.347C451.194 203.35 450.809 203.384 450.425 203.344C450.084 203.302 449.735 203.204 449.446 202.993C449.157 202.783 448.962 202.476 448.836 202.157C448.715 201.851 448.679 201.497 448.749 201.189C448.852 200.853 449.027 200.548 449.257 200.309Z" fill="white"/>
<path fill-rule="evenodd" clip-rule="evenodd" d="M436.075 205.385C436.432 205.244 436.789 205.103 437.147 204.962C437.967 207.042 438.793 209.135 439.614 211.216C439.256 211.357 438.899 211.498 438.542 211.639C437.716 209.546 436.896 207.466 436.075 205.385Z" fill="white"/>
<path fill-rule="evenodd" clip-rule="evenodd" d="M455.309 197.787C455.667 197.646 456.024 197.505 456.381 197.363C457.202 199.444 458.027 201.537 458.848 203.618C458.491 203.759 458.133 203.9 457.776 204.041C456.951 201.948 456.13 199.867 455.309 197.787Z" fill="white"/>
<path fill-rule="evenodd" clip-rule="evenodd" d="M459.494 196.134C460.323 195.806 461.139 195.484 461.968 195.156C462.611 194.917 463.34 194.821 464.014 194.997C464.586 195.14 465.099 195.468 465.479 195.908C465.799 196.269 466.044 196.703 466.22 197.15C466.471 197.788 466.58 198.512 466.434 199.189C466.322 199.765 466.011 200.286 465.595 200.686C465.259 200.996 464.869 201.239 464.453 201.418C463.624 201.745 462.794 202.073 461.978 202.395C461.135 200.295 460.314 198.214 459.494 196.134ZM460.933 196.642C461.507 198.097 462.08 199.552 462.654 201.007C462.999 200.871 463.33 200.74 463.675 200.604C463.879 200.523 464.101 200.45 464.29 200.332C464.665 200.124 464.992 199.833 465.175 199.436C465.335 199.093 465.387 198.703 465.341 198.323C465.299 197.956 465.189 197.601 465.027 197.267C464.881 196.971 464.696 196.69 464.458 196.459C464.225 196.242 463.938 196.075 463.625 195.992C463.264 195.898 462.879 195.932 462.52 196.03C462.305 196.085 462.094 196.184 461.889 196.264C461.571 196.39 461.252 196.516 460.933 196.642Z" fill="white"/>
<path fill-rule="evenodd" clip-rule="evenodd" d="M467.209 193.087C468.485 192.583 469.76 192.079 471.023 191.58C471.149 191.899 471.27 192.206 471.396 192.525C470.477 192.888 469.546 193.255 468.628 193.618C468.824 194.116 469.025 194.627 469.222 195.124C470.051 194.797 470.867 194.474 471.696 194.147C471.817 194.453 471.938 194.759 472.059 195.066C471.23 195.393 470.4 195.721 469.584 196.043C469.841 196.694 470.092 197.332 470.349 197.983C471.268 197.62 472.199 197.252 473.117 196.89C473.243 197.209 473.369 197.528 473.49 197.834C472.214 198.338 470.938 198.842 469.676 199.341C468.85 197.248 468.029 195.167 467.209 193.087Z" fill="white"/>
<path fill-rule="evenodd" clip-rule="evenodd" d="M474.211 190.319C474.989 190.012 475.768 189.704 476.558 189.392C476.946 189.253 477.367 189.161 477.789 189.186C478.12 189.203 478.448 189.324 478.702 189.519C479.014 189.749 479.237 190.089 479.383 190.459C479.529 190.829 479.616 191.238 479.55 191.632C479.506 191.93 479.352 192.212 479.142 192.428C478.986 192.593 478.814 192.719 478.62 192.826C479.71 193.383 480.8 193.941 481.895 194.512C481.487 194.673 481.079 194.834 480.683 194.99C479.624 194.435 478.56 193.867 477.487 193.317C477.232 193.418 476.99 193.514 476.735 193.615C477.067 194.457 477.404 195.312 477.736 196.155C477.379 196.296 477.022 196.437 476.678 196.573C475.852 194.48 475.032 192.399 474.211 190.319ZM475.632 190.82C475.884 191.458 476.136 192.096 476.387 192.734C476.796 192.573 477.217 192.407 477.625 192.245C477.906 192.134 478.169 191.942 478.31 191.665C478.4 191.482 478.414 191.255 478.369 191.066C478.312 190.809 478.173 190.569 477.964 190.415C477.761 190.274 477.494 190.232 477.252 190.254C476.997 190.281 476.773 190.384 476.543 190.475C476.232 190.583 475.939 190.699 475.632 190.82Z" fill="white"/>
</g>
<g style="mix-blend-mode:soft-light">
<path d="M216.913 362.773C227.329 357.23 231.285 344.289 225.749 333.868C220.212 323.448 207.28 319.493 196.863 325.036C186.447 330.579 182.491 343.52 188.027 353.941C193.564 364.362 206.496 368.316 216.913 362.773Z" fill="#757575"/>
<path fill-rule="evenodd" clip-rule="evenodd" d="M193.545 348.281L197.581 346.136L201.953 354.355L206.07 352.166L201.699 343.947L205.735 341.802L203.541 337.678L191.352 344.157L193.545 348.281Z" fill="white"/>
<path d="M216.025 331.03L207.756 335.43L209.948 339.555L218.217 335.155L216.025 331.03Z" fill="white"/>
<path fill-rule="evenodd" clip-rule="evenodd" d="M205.823 341.751L210.292 350.163L210.417 350.097L214.416 347.969L222.611 343.608L220.423 339.49L212.228 343.851L209.946 339.557L205.823 341.751Z" fill="white"/>
</g>
<path d="M525.512 519.725V511.165L540.842 511.065L540.972 523.985L540.022 524.055C535.792 524.325 518.502 524.725 515.672 523.845C512.502 522.875 525.512 519.725 525.512 519.725Z" fill="#14B86E"/>
<path d="M515.302 523.055C515.302 523.195 521.032 523.315 528.112 523.315C535.182 523.315 540.922 523.195 540.922 523.055C540.922 522.915 535.192 522.795 528.112 522.795C521.042 522.795 515.302 522.905 515.302 523.055Z" fill="#263238"/>
<path d="M525.242 521.465C525.372 521.395 525.262 520.945 524.932 520.505C524.602 520.055 524.202 519.825 524.102 519.925C524.002 520.025 524.212 520.405 524.512 520.815C524.812 521.225 525.112 521.535 525.242 521.465Z" fill="#263238"/>
<path d="M524.262 522.035C524.392 521.985 524.322 521.475 524.022 520.945C523.722 520.405 523.322 520.085 523.212 520.175C523.102 520.265 523.292 520.705 523.572 521.195C523.852 521.695 524.132 522.085 524.262 522.035Z" fill="#263238"/>
<path d="M536.302 523.015C536.362 523.055 536.592 522.835 536.922 522.455C537.252 522.085 537.692 521.555 538.262 521.105C538.832 520.665 539.462 520.435 539.922 520.385C540.392 520.325 540.692 520.395 540.722 520.315C540.752 520.255 540.462 520.045 539.912 520.015C539.372 519.975 538.602 520.185 537.952 520.695C537.302 521.195 536.892 521.805 536.632 522.235C536.362 522.675 536.242 522.975 536.302 523.015Z" fill="#263238"/>
<path d="M525.192 519.865C525.112 519.985 525.382 520.285 525.822 520.445C526.262 520.605 526.652 520.555 526.672 520.405C526.692 520.265 526.382 520.095 526.002 519.955C525.622 519.815 525.272 519.735 525.192 519.865Z" fill="#263238"/>
<path d="M525.432 519.035C525.422 519.175 525.822 519.305 526.342 519.305C526.862 519.315 527.272 519.205 527.262 519.055C527.252 518.915 526.842 518.785 526.352 518.785C525.862 518.785 525.452 518.895 525.432 519.035Z" fill="#263238"/>
<path d="M487.762 519.725V511.165L503.092 511.065L503.222 523.855L502.272 523.925C498.042 524.195 480.752 524.725 477.922 523.855C474.752 522.875 487.762 519.725 487.762 519.725Z" fill="#14B86E"/>
<path d="M477.552 523.075C477.552 523.215 483.282 523.335 490.362 523.335C497.432 523.335 503.172 523.215 503.172 523.075C503.172 522.935 497.442 522.815 490.362 522.815C483.282 522.815 477.552 522.925 477.552 523.075Z" fill="#263238"/>
<path d="M487.492 521.465C487.622 521.395 487.512 520.945 487.182 520.505C486.852 520.055 486.452 519.825 486.352 519.925C486.252 520.025 486.462 520.405 486.762 520.815C487.062 521.225 487.362 521.535 487.492 521.465Z" fill="#263238"/>
<path d="M486.512 522.035C486.642 521.985 486.572 521.475 486.272 520.945C485.972 520.405 485.572 520.085 485.462 520.175C485.352 520.265 485.542 520.705 485.822 521.195C486.102 521.695 486.372 522.085 486.512 522.035Z" fill="#263238"/>
<path d="M498.552 523.015C498.612 523.055 498.842 522.835 499.172 522.455C499.502 522.085 499.942 521.555 500.512 521.105C501.082 520.665 501.712 520.435 502.172 520.385C502.642 520.325 502.942 520.395 502.972 520.315C503.002 520.255 502.712 520.045 502.162 520.015C501.622 519.975 500.852 520.185 500.202 520.695C499.552 521.195 499.142 521.805 498.882 522.235C498.612 522.675 498.492 522.975 498.552 523.015Z" fill="#263238"/>
<path d="M487.442 519.865C487.372 519.985 487.632 520.285 488.072 520.445C488.512 520.605 488.902 520.555 488.922 520.405C488.942 520.265 488.632 520.095 488.252 519.955C487.862 519.815 487.522 519.735 487.442 519.865Z" fill="#263238"/>
<path d="M487.682 519.035C487.672 519.175 488.072 519.305 488.592 519.305C489.112 519.315 489.522 519.205 489.512 519.055C489.502 518.915 489.092 518.785 488.602 518.785C488.112 518.785 487.702 518.895 487.682 519.035Z" fill="#263238"/>
<path d="M431.282 265.825C431.682 265.415 432.662 265.605 432.662 265.605C432.662 265.605 432.492 264.435 432.672 263.875C432.852 263.305 434.112 263.415 434.112 263.415C434.112 263.415 434.192 262.875 434.082 261.995C434.052 261.775 434.172 261.615 434.372 261.495C434.972 261.135 436.252 261.155 436.252 261.155C437.022 260.605 433.902 256.235 432.742 254.835C431.612 253.455 431.802 252.345 432.832 252.345C433.532 252.345 437.182 256.545 438.292 257.955C439.402 259.365 442.392 263.285 442.492 260.155C442.592 257.025 443.852 254.655 444.632 254.255C445.422 253.855 446.262 254.795 445.832 255.665C445.482 256.365 445.262 257.725 445.132 258.745C445.032 259.585 445.062 260.445 445.252 261.275C445.772 263.615 446.332 265.145 446.602 265.795V271.705C446.602 271.705 466.93 288.51 468.5 290C469.92 291.34 499.862 286.585 505.542 285.985C507.092 285.815 509.392 285.495 511.392 285.585C513.852 285.695 514.292 286.045 516.762 286.075C524.312 286.175 530.612 286.915 535.292 287.705C540.952 288.665 545.602 292.695 547.352 298.165C553.082 316.065 562.69 354.7 565 378.5C566.82 381.92 572.232 389.655 573.052 391.905C574.662 396.285 574.272 396.425 573.732 396.535C572.282 396.805 570.612 388.945 569.992 390.845C569.372 392.745 573.142 400.215 571.612 400.435C569.612 400.725 568.022 392.465 567.842 391.775C567.662 391.105 566.652 391.335 566.852 391.945C567.142 392.825 569.952 402.155 568.002 402.455C566.922 402.625 566.802 400.645 566.802 400.645C566.802 400.645 564.812 391.725 563.892 391.895C562.962 392.065 563.952 397.345 564.412 399.105C564.872 400.845 564.222 401.765 563.292 401.325C562.652 401.025 561.122 395.685 560.702 393.935C560.292 392.185 559.232 387.375 557.822 390.165C556.412 392.955 554.272 394.575 553.392 394.615C552.512 394.645 552.142 393.435 552.902 392.825C553.522 392.335 554.292 391.205 554.832 390.325C555.282 389.605 555.612 388.815 555.792 387.985C556.492 384.785 556.492 382.925 556.492 382.925L557.822 379C555.582 367.91 547.962 338.255 538.682 317.465L534.862 325.325L533.202 331.145L543.382 356.285L499.972 355.715L506.442 330.775L498.582 304.775C490.072 304.965 468.212 305.285 464.542 303.645C459.952 301.585 441 274.5 441 274.5C439.4 273.23 433.022 269.055 431.822 267.865C431.832 267.865 430.412 266.715 431.282 265.825Z" fill="#FFBE9D"/>
<path d="M545.272 337.765C544.012 333.465 537.542 312.205 537.542 312.205C537.542 312.205 534.362 329.535 535.202 331.625C536.162 334.035 537.932 336.785 537.932 336.785C545.272 347.965 544.312 353.555 544.312 353.555L499.972 352.205C499.862 346.005 503.532 331.585 504.302 329.285C505.072 326.985 502.522 319.445 502.522 319.445C502.522 319.445 496.31 314.12 496.5 311.5C496.89 306.22 498.572 304.755 498.572 304.755L471.592 305.745L472.442 287.435L511.222 283.555C512.562 287.375 524.782 285.505 524.782 285.505C537.972 285.935 538.762 288.365 544.262 292.625C549.762 296.885 558.812 333.445 558.812 333.445L545.272 337.765Z" fill="#14B86E"/>
<path d="M519.042 333.445C519.042 333.515 519.932 333.575 521.382 333.565C522.822 333.555 524.822 333.465 527.012 333.245C529.202 333.025 531.182 332.715 532.592 332.435C534.012 332.155 534.872 331.925 534.862 331.855C534.852 331.785 533.962 331.885 532.532 332.075C531.102 332.255 529.142 332.505 526.962 332.725C524.782 332.945 522.802 333.095 521.372 333.195C519.932 333.295 519.042 333.375 519.042 333.445Z" fill="#263238"/>
<path d="M516.012 329.675C515.992 329.735 516.912 330.085 518.432 330.505C519.952 330.915 522.092 331.375 524.492 331.665C526.892 331.945 529.082 332.005 530.652 331.965C532.232 331.925 533.202 331.795 533.202 331.725C533.202 331.645 532.222 331.645 530.652 331.595C529.082 331.545 526.922 331.435 524.552 331.145C522.182 330.865 520.052 330.465 518.512 330.145C516.982 329.825 516.032 329.595 516.012 329.675Z" fill="#263238"/>
<path d="M501.092 312.855C501.022 312.865 501.132 313.735 501.392 315.115C501.652 316.495 502.052 318.395 502.562 320.485C503.072 322.565 503.592 324.445 504.002 325.785C504.412 327.135 504.712 327.955 504.782 327.935C504.852 327.915 504.682 327.065 504.362 325.695C503.982 324.135 503.552 322.345 503.072 320.365C502.582 318.385 502.142 316.605 501.752 315.045C501.412 313.675 501.172 312.835 501.092 312.855Z" fill="#263238"/>
<path d="M544.802 335.225C544.842 335.365 547.902 334.655 551.632 333.635C555.372 332.615 558.362 331.675 558.322 331.535C558.282 331.395 555.222 332.115 551.492 333.125C547.762 334.145 544.762 335.085 544.802 335.225Z" fill="#263238"/>
<path d="M498.082 304.525C498.082 304.545 498.492 304.595 499.232 304.515C499.962 304.435 501.042 304.265 502.282 303.785C503.522 303.315 504.942 302.545 506.262 301.365C507.582 300.195 508.762 298.575 509.512 296.675C510.272 294.775 510.532 292.795 510.412 291.035C510.292 289.275 509.832 287.685 509.042 286.575C508.262 285.445 507.232 284.905 506.512 284.715C506.152 284.615 505.852 284.595 505.662 284.605C505.462 284.615 505.362 284.635 505.362 284.645C505.362 284.695 505.772 284.675 506.452 284.905C507.112 285.145 508.052 285.705 508.742 286.785C510.102 288.925 510.482 292.835 509.032 296.485C508.302 298.315 507.192 299.865 505.942 301.005C504.692 302.155 503.342 302.945 502.152 303.445C499.742 304.445 498.072 304.415 498.082 304.525Z" fill="#263238"/>
<path d="M474.782 305.385C474.922 305.385 475.032 301.255 475.022 296.175C475.012 291.085 474.892 286.955 474.742 286.955C474.602 286.955 474.492 291.085 474.502 296.175C474.512 301.265 474.632 305.395 474.782 305.385Z" fill="#263238"/>
<path d="M511.462 284.685C511.352 282.455 511.122 279.935 511.122 279.935C511.122 279.935 505.602 279.325 505.272 273.625C504.942 267.925 505.272 254.775 505.272 254.775L515.322 249.655L526.382 258.375L524.702 286.875L514.532 287.525C512.922 287.635 511.542 286.355 511.462 284.685Z" fill="#FFBE9D"/>
<path d="M510.472 269.115C510.452 269.115 510.452 269.225 510.562 269.365C510.662 269.495 510.882 269.655 511.192 269.645C511.832 269.615 512.452 268.905 512.672 268.045C512.782 267.605 512.782 267.165 512.702 266.775C512.632 266.395 512.412 266.015 512.102 265.915C511.952 265.855 511.792 265.865 511.682 265.925C511.562 265.985 511.492 266.075 511.452 266.155C511.382 266.325 511.432 266.425 511.452 266.415C511.472 266.415 511.472 266.325 511.552 266.215C511.632 266.105 511.822 266.005 512.022 266.115C512.232 266.215 512.382 266.485 512.432 266.825C512.492 267.165 512.492 267.565 512.382 267.955C512.182 268.725 511.642 269.365 511.172 269.425C510.932 269.455 510.742 269.365 510.632 269.275C510.532 269.185 510.492 269.105 510.472 269.115Z" fill="#EB996E"/>
<path d="M501.842 251.695C502.612 249.075 505.402 247.765 507.942 247.045C511.812 245.945 516.002 245.465 519.772 246.855C523.552 248.245 528.092 250.695 528.092 254.865C530.322 254.685 531.592 256.635 532.482 259.055C533.002 260.485 533.352 262.075 533.432 263.655L533.472 263.645C533.762 269.105 535.282 276.635 538.822 280.675C540.782 282.905 543.592 284.445 544.732 287.225C545.722 289.645 545.212 292.495 546.152 294.935C546.982 297.085 548.812 298.615 550.122 300.485C552.982 304.565 553.172 310.325 551.072 314.875C548.972 319.425 544.812 322.755 540.192 324.285C535.572 325.815 530.532 325.645 525.832 324.415C522.362 323.515 518.982 322.015 516.212 319.645C513.442 317.285 511.322 313.995 510.692 310.325C509.992 306.245 511.132 302.095 511.972 298.035C514.632 285.195 513.872 284.535 510.512 272.625C510.432 272.415 510.392 272.195 510.332 271.985C510.292 271.825 510.242 271.675 510.202 271.515H510.212C510.122 271.045 510.052 270.575 510.052 270.095C511.022 270.475 512.202 270.225 512.942 269.465C513.692 268.715 513.962 267.495 513.622 266.475C513.232 265.295 512.152 264.515 511.042 264.045C509.932 263.575 508.742 263.345 507.652 262.825C505.342 261.725 503.742 259.445 502.652 257.055C501.892 255.385 501.322 253.465 501.842 251.695Z" fill="#263238"/>
<path d="M510.072 269.355C510.042 269.345 509.842 269.715 509.542 270.345C509.242 270.975 508.842 271.865 508.402 272.895L508.322 273.085L508.532 273.105C508.862 273.135 509.202 273.165 509.552 273.195C510.252 273.245 510.832 273.325 511.512 273.315C511.622 273.295 511.742 273.195 511.772 273.085C511.812 272.975 511.802 272.885 511.792 272.805C511.762 272.645 511.732 272.535 511.702 272.395L511.522 271.685C511.302 270.825 511.142 270.295 511.102 270.305C511.062 270.315 511.142 270.865 511.312 271.735L511.452 272.455C511.502 272.695 511.592 273.055 511.462 273.035C510.962 273.015 510.252 272.935 509.592 272.885C509.242 272.855 508.912 272.835 508.572 272.805L508.692 273.005C509.122 271.975 509.482 271.065 509.732 270.415C509.982 269.765 510.112 269.365 510.072 269.355Z" fill="#14B86E"/>
<path d="M544.302 353.555L499.962 352.205L480.682 427.545L484.232 513.965H507.702L504.792 429.385L521.942 376.935L519.302 517.305L542.992 517.655L545.492 385.705C545.592 382.035 546.802 373.765 546.352 370.125L544.302 353.555Z" fill="#263238"/>
<path d="M516.042 377.995C516.052 378.065 516.882 378.025 518.212 377.865C519.542 377.705 521.382 377.425 523.392 377.025C525.402 376.615 527.202 376.165 528.492 375.795C529.782 375.425 530.562 375.145 530.552 375.075C530.512 374.935 527.292 375.715 523.292 376.515C519.292 377.325 516.022 377.855 516.042 377.995Z" fill="#455A64"/>
<path d="M484.442 509.215C484.442 509.355 489.752 509.475 496.312 509.475C502.872 509.475 508.182 509.355 508.182 509.215C508.182 509.075 502.872 508.955 496.312 508.955C489.762 508.965 484.442 509.075 484.442 509.215Z" fill="#455A64"/>
<path d="M519.512 513.665C519.512 513.805 524.662 513.925 531.022 513.925C537.382 513.925 542.532 513.805 542.532 513.665C542.532 513.525 537.382 513.405 531.022 513.405C524.672 513.405 519.512 513.515 519.512 513.665Z" fill="#455A64"/>
<path d="M522.572 513.305C522.712 513.305 523.342 482.635 523.962 444.805C524.592 406.965 524.972 376.285 524.832 376.285C524.692 376.285 524.062 406.955 523.442 444.795C522.812 482.625 522.422 513.305 522.572 513.305Z" fill="#455A64"/>
<path d="M487.602 509.215C487.612 509.215 487.612 509.075 487.612 508.805C487.602 508.515 487.602 508.115 487.592 507.605C487.562 506.525 487.512 504.975 487.462 503.005C487.322 498.975 487.122 493.205 486.872 486.075C486.322 471.755 485.572 452.025 484.732 430.225C484.722 430.025 484.712 429.825 484.712 429.635L484.702 429.705C489.962 408.665 494.712 389.645 498.152 375.855C499.842 368.985 501.212 363.425 502.162 359.545C502.622 357.635 502.972 356.145 503.222 355.105C503.332 354.615 503.422 354.235 503.482 353.945C503.542 353.685 503.562 353.545 503.552 353.545C503.542 353.545 503.502 353.675 503.432 353.935C503.352 354.215 503.252 354.595 503.122 355.075C502.852 356.115 502.462 357.595 501.962 359.495C500.972 363.365 499.542 368.915 497.792 375.765C494.312 389.545 489.512 408.555 484.192 429.585L484.182 429.625V429.665C484.192 429.845 484.202 430.055 484.202 430.255C485.092 452.045 485.902 471.785 486.492 486.095C486.812 493.225 487.062 498.995 487.242 503.015C487.342 504.995 487.422 506.535 487.472 507.615C487.502 508.125 487.532 508.515 487.542 508.815C487.572 509.085 487.592 509.225 487.602 509.215Z" fill="#455A64"/>
<path d="M495.252 427.885C495.232 428.025 497.552 428.545 500.432 429.035C502.592 429.405 504.452 429.665 505.262 429.705V429.505C504.992 429.575 504.842 429.635 504.852 429.675C504.862 429.715 505.012 429.725 505.292 429.715L505.902 429.685L505.292 429.505C504.512 429.275 502.672 428.895 500.512 428.525C497.632 428.025 495.272 427.735 495.252 427.885Z" fill="#455A64"/>
<path d="M495.692 430.755C495.712 430.895 497.792 430.735 500.362 430.545C502.932 430.345 505.012 430.175 505.012 430.035C505.012 429.895 502.912 429.825 500.322 430.025C497.742 430.225 495.682 430.615 495.692 430.755Z" fill="#455A64"/>
<path opacity="0.2" d="M544.502 355.145C543.432 356.655 541.902 357.185 540.122 357.475C538.342 357.765 536.532 357.575 534.742 357.375C523.292 356.105 511.172 354.935 499.962 352.205C514.472 353.015 529.792 352.745 544.302 353.555C544.302 353.555 544.422 354.555 544.452 354.795" fill="black"/>
<g opacity="0.2">
<path opacity="0.2" d="M529.552 375.595L521.372 407.325L521.942 376.935L529.552 375.595Z" fill="black"/>
</g>
<path d="M269.338 576.812L205.05 613.934C204.504 614.247 203.84 614.247 203.294 613.934L108.878 559.402C107.707 558.725 107.707 557.034 108.878 556.357L173.166 519.234C173.713 518.922 174.376 518.922 174.922 519.234L269.338 573.767C270.522 574.443 270.522 576.135 269.338 576.812Z" fill="#119C59"/>
<path d="M265.267 574.157L202.683 610.304L112.091 557.996L174.688 521.849L265.267 574.157Z" fill="url(#paint0_linear_1565_274)"/>
<path d="M181.087 536.41L152.429 552.961C152.208 553.091 151.83 553.065 151.57 552.922C151.323 552.779 151.284 552.557 151.505 552.427L180.163 535.876C180.384 535.746 180.761 535.772 181.022 535.915C181.282 536.071 181.308 536.293 181.087 536.41Z" fill="#119C59"/>
<path d="M183.753 537.958L155.095 554.509C154.874 554.639 154.497 554.613 154.237 554.47C153.99 554.327 153.951 554.106 154.172 553.976L182.83 537.425C183.051 537.295 183.428 537.321 183.688 537.464C183.949 537.607 183.975 537.828 183.753 537.958Z" fill="#119C59"/>
<path d="M172.774 547.379L157.762 556.045C157.541 556.175 157.164 556.149 156.904 556.006C156.657 555.862 156.618 555.641 156.839 555.511L171.851 546.845C172.072 546.715 172.449 546.741 172.709 546.884C172.956 547.04 172.995 547.262 172.774 547.379Z" fill="#119C59"/>
<path d="M144.963 563.123L139.564 563.136C138.849 563.136 138.264 562.798 138.277 562.394C138.277 561.978 138.862 561.64 139.577 561.64L143.402 561.627L143.428 556.435C143.428 556.019 144.013 555.68 144.729 555.68C145.444 555.68 146.03 556.019 146.017 556.422L145.978 562.524C145.991 562.863 145.522 563.123 144.963 563.123Z" fill="#119C59"/>
<path d="M155.553 558.855L155.344 558.972L146.251 553.715L146.447 553.598L155.553 558.855Z" fill="#119C59"/>
<path d="M178.966 556.305L153.47 571.021C153.249 571.151 152.871 571.125 152.611 570.982C152.364 570.839 152.325 570.618 152.546 570.488L178.043 555.771C178.264 555.641 178.641 555.667 178.901 555.81C179.162 555.953 179.188 556.175 178.966 556.305Z" fill="#119C59"/>
<path d="M181.634 557.84L156.137 572.557C155.916 572.687 155.539 572.661 155.279 572.518C155.032 572.374 154.993 572.153 155.214 572.023L180.711 557.307C180.932 557.177 181.309 557.203 181.569 557.346C181.829 557.502 181.855 557.723 181.634 557.84Z" fill="#119C59"/>
<path d="M172.125 566.427L158.817 574.117C158.596 574.248 158.219 574.221 157.959 574.078C157.712 573.935 157.673 573.714 157.894 573.584L171.202 565.894C171.423 565.764 171.8 565.79 172.06 565.933C172.307 566.076 172.333 566.297 172.125 566.427Z" fill="#119C59"/>
<path d="M195.658 552.518L190.26 552.531C189.544 552.531 188.959 552.193 188.972 551.79C188.972 551.373 189.557 551.035 190.273 551.035L194.097 551.022L194.123 545.83C194.123 545.414 194.709 545.076 195.424 545.076C196.14 545.076 196.725 545.414 196.712 545.817L196.673 551.92C196.673 552.245 196.218 552.518 195.658 552.518Z" fill="#119C59"/>
<path d="M190.116 557.554L189.908 557.672L180.815 552.428L181.024 552.298L190.116 557.554Z" fill="#119C59"/>
<path d="M210.46 553.377L181.802 569.928C181.581 570.058 181.203 570.032 180.943 569.889C180.696 569.746 180.657 569.525 180.878 569.395L209.536 552.844C209.757 552.714 210.134 552.74 210.395 552.883C210.655 553.026 210.681 553.247 210.46 553.377Z" fill="#119C59"/>
<path d="M213.127 554.913L184.469 571.464C184.248 571.594 183.871 571.568 183.61 571.425C183.363 571.282 183.324 571.061 183.545 570.931L212.203 554.379C212.424 554.249 212.802 554.275 213.062 554.418C213.322 554.575 213.348 554.796 213.127 554.913Z" fill="#119C59"/>
<path d="M202.148 564.346L187.136 573.012C186.915 573.142 186.538 573.116 186.277 572.973C186.03 572.83 185.991 572.609 186.212 572.479L201.224 563.813C201.445 563.683 201.823 563.709 202.083 563.852C202.33 563.995 202.356 564.216 202.148 564.346Z" fill="#119C59"/>
<path d="M174.336 580.09L168.937 580.104C168.222 580.104 167.637 579.765 167.65 579.362C167.65 578.945 168.235 578.607 168.95 578.607L172.775 578.594L172.801 573.402C172.801 572.986 173.386 572.648 174.102 572.648C174.817 572.648 175.403 572.986 175.39 573.389L175.351 579.492C175.351 579.817 174.895 580.09 174.336 580.09Z" fill="#119C59"/>
<path d="M184.913 575.822L184.717 575.94L175.625 570.683L175.82 570.566L184.913 575.822Z" fill="#119C59"/>
<path d="M208.34 573.259L182.843 587.975C182.622 588.106 182.244 588.08 181.984 587.936C181.737 587.793 181.698 587.572 181.919 587.442L207.416 572.726C207.637 572.596 208.014 572.622 208.275 572.765C208.535 572.921 208.561 573.142 208.34 573.259Z" fill="#119C59"/>
<path d="M211.006 574.808L185.509 589.524C185.288 589.654 184.911 589.628 184.651 589.485C184.404 589.342 184.365 589.121 184.586 588.991L210.082 574.274C210.303 574.144 210.681 574.17 210.941 574.313C211.201 574.456 211.227 574.678 211.006 574.808Z" fill="#119C59"/>
<path d="M201.497 583.382L188.189 591.072C187.968 591.202 187.591 591.176 187.33 591.033C187.083 590.89 187.044 590.669 187.265 590.538L200.573 582.849C200.794 582.718 201.172 582.744 201.432 582.888C201.679 583.031 201.705 583.252 201.497 583.382Z" fill="#119C59"/>
<path d="M225.031 569.473L219.633 569.486C218.917 569.486 218.332 569.148 218.345 568.744C218.345 568.328 218.93 567.99 219.646 567.99L223.47 567.977L223.496 562.785C223.496 562.369 224.081 562.03 224.797 562.03C225.512 562.03 226.098 562.368 226.085 562.772L226.046 568.874C226.046 569.213 225.59 569.473 225.031 569.473Z" fill="#119C59"/>
<path d="M219.49 574.521L219.282 574.638L210.188 569.381L210.397 569.264L219.49 574.521Z" fill="#119C59"/>
</g>
<defs>
<filter id="filter0_d_1565_274" x="0" y="0" width="666" height="638" filterUnits="userSpaceOnUse" color-interpolation-filters="sRGB">
<feFlood flood-opacity="0" result="BackgroundImageFix"/>
<feColorMatrix in="SourceAlpha" type="matrix" values="0 0 0 0 0 0 0 0 0 0 0 0 0 0 0 0 0 0 127 0" result="hardAlpha"/>
<feOffset dy="4"/>
<feGaussianBlur stdDeviation="2"/>
<feColorMatrix type="matrix" values="0 0 0 0 0 0 0 0 0 0 0 0 0 0 0 0 0 0 0.25 0"/>
<feBlend mode="normal" in2="BackgroundImageFix" result="effect1_dropShadow_1565_274"/>
<feBlend mode="normal" in="SourceGraphic" in2="effect1_dropShadow_1565_274" result="shape"/>
</filter>
<linearGradient id="paint0_linear_1565_274" x1="157.389" y1="584.149" x2="188.697" y2="529.938" gradientUnits="userSpaceOnUse">
<stop stop-color="#FAF9F7"/>
<stop offset="1" stop-color="#EAE7DC"/>
</linearGradient>
<clipPath id="clip0_1565_274">
<rect width="658" height="630" fill="white" transform="translate(4)"/>
</clipPath>
</defs>
</svg>
