<svg xmlns="http://www.w3.org/2000/svg" xmlns:xlink="http://www.w3.org/1999/xlink" width="500" zoomAndPan="magnify" viewBox="0 0 375 374.999991" height="500" preserveAspectRatio="xMidYMid meet" version="1.0"><defs><clipPath id="02a9a0cf72"><path d="M 43 60.238281 L 258 60.238281 L 258 198 L 43 198 Z M 43 60.238281 " clip-rule="nonzero"/></clipPath><clipPath id="bd9d905630"><path d="M 50 169 L 299 169 L 299 314.488281 L 50 314.488281 Z M 50 169 " clip-rule="nonzero"/></clipPath><clipPath id="03c4bd49a1"><path d="M 19.648438 139 L 240 139 L 240 227 L 19.648438 227 Z M 19.648438 139 " clip-rule="nonzero"/></clipPath></defs><g clip-path="url(#02a9a0cf72)"><path fill="#3870c2" d="M 63.898438 195.332031 C 63.703125 192.703125 63.601562 190.046875 63.601562 187.363281 C 63.601562 176.511719 65.21875 166.054688 68.21875 156.179688 C 72.332031 167.734375 86.777344 176.132812 96.828125 181.996094 C 99.761719 183.714844 102.792969 185.316406 105.609375 187.191406 C 111 185.785156 116.324219 184.234375 121.585938 182.570312 C 120.554688 179.742188 120.070312 176.054688 120.65625 174.117188 C 122.132812 169.28125 126.648438 170.546875 130.875 170.183594 C 144.738281 168.984375 140.46875 146.722656 146.640625 138.453125 C 151.15625 132.394531 160.265625 128.722656 160.304688 121.179688 C 160.332031 114.929688 153.625 110.226562 153.507812 103.976562 C 153.492188 103.351562 153.546875 102.726562 153.648438 102.101562 C 154.015625 99.703125 154.96875 97.34375 154.796875 94.9375 C 154.445312 90.089844 149.929688 86.679688 146.210938 83.121094 C 154.144531 81.257812 162.421875 80.257812 170.929688 80.257812 C 181.96875 80.257812 192.632812 81.925781 202.65625 85.023438 C 199.835938 92.761719 206.023438 105.996094 212.898438 110.34375 C 218.070312 113.613281 225.324219 114.890625 227.632812 120.542969 C 228.039062 121.546875 228.222656 122.550781 228.261719 123.539062 C 237.683594 115.386719 246.558594 106.621094 254.820312 97.253906 C 256.019531 95.898438 256.867188 94.9375 257.625 94.257812 C 234.890625 73.15625 204.429688 60.25 170.929688 60.25 C 100.585938 60.25 43.554688 117.167969 43.554688 187.375 C 43.554688 190.761719 43.683594 194.109375 43.945312 197.417969 C 50.667969 196.894531 57.308594 196.207031 63.898438 195.332031 Z M 63.898438 195.332031 " fill-opacity="1" fill-rule="nonzero"/></g><g clip-path="url(#bd9d905630)"><path fill="#3870c2" d="M 282.082031 178.960938 C 281.167969 179.480469 280.503906 179.871094 280.203125 180.054688 C 259.296875 192.804688 236.886719 203.355469 213.460938 211.535156 C 213.34375 212.589844 213.332031 213.632812 213.527344 214.675781 C 214.582031 220.589844 220.390625 225.628906 226.394531 225.8125 C 229.160156 225.902344 232.292969 225.253906 234.433594 227.011719 C 235.726562 228.078125 236.289062 229.773438 236.730469 231.386719 C 239.640625 241.949219 240.4375 253.085938 239.054688 263.949219 C 238.78125 266.136719 238.425781 268.363281 238.558594 270.554688 C 220.105469 285.519531 196.574219 294.492188 170.941406 294.492188 C 165.8125 294.492188 160.761719 294.128906 155.828125 293.425781 C 155.882812 292.527344 155.960938 291.640625 156.089844 290.753906 C 156.78125 286.289062 159.132812 282.105469 162.589844 279.1875 C 164.886719 277.261719 167.914062 275.386719 167.992188 272.390625 C 168.070312 269.171875 164.730469 267.152344 162.484375 264.847656 C 158.101562 260.355469 157.578125 253.203125 161.375 248.4375 C 166.320312 242.238281 171.019531 235.75 175.679688 229.265625 C 177.257812 227.0625 178.929688 224.5625 178.550781 221.878906 C 178.550781 221.851562 178.539062 221.839844 178.539062 221.8125 C 158.480469 226.632812 137.898438 229.796875 117.070312 231.203125 C 112.097656 231.542969 107.164062 231.765625 102.257812 231.90625 C 101.785156 236.425781 102.152344 241.050781 103.457031 245.140625 C 106.261719 253.933594 113.882812 260.691406 122.5625 263.871094 C 124.847656 264.707031 127.273438 265.34375 129.191406 266.828125 C 131.125 268.3125 132.429688 270.957031 131.503906 273.199219 C 130.953125 274.539062 129.675781 275.632812 129.664062 277.078125 C 129.648438 278.082031 130.261719 278.96875 130.835938 279.773438 C 131.90625 281.261719 133.929688 284.816406 136.332031 288.800781 C 108.195312 279.242188 85.316406 258.324219 73.152344 231.542969 C 69.800781 231.359375 66.457031 231.140625 63.15625 230.851562 L 62.671875 230.8125 C 59.304688 230.527344 55.167969 230.164062 50.746094 229.539062 C 68.167969 279.019531 115.398438 314.5 170.941406 314.5 C 241.285156 314.5 298.316406 257.582031 298.316406 187.375 C 298.316406 181.382812 297.886719 175.484375 297.089844 169.714844 C 294.179688 171.902344 289.46875 174.703125 282.082031 178.960938 Z M 282.082031 178.960938 " fill-opacity="1" fill-rule="nonzero"/></g><g clip-path="url(#03c4bd49a1)"><path fill="#3870c2" d="M 215.730469 139.636719 C 214.375 139.089844 163.476562 188.742188 62.085938 200.699219 C 56.109375 201.402344 37.902344 203.394531 32.96875 202.496094 C 27.371094 201.480469 22.699219 198.082031 28.230469 188.183594 C 24.472656 192.6875 19.933594 196.347656 19.878906 202.875 C 19.695312 222.308594 49.636719 224.664062 63.585938 225.863281 C 81.246094 227.386719 106.199219 225.722656 123.660156 222.710938 C 166.21875 215.367188 188.195312 201.988281 239.277344 176.421875 C 239.277344 176.421875 239.289062 161.507812 239.277344 150.242188 C 239.25 150.214844 229.617188 145.277344 215.730469 139.636719 Z M 215.730469 139.636719 " fill-opacity="1" fill-rule="nonzero"/></g><path fill="#3870c2" d="M 352.007812 80.984375 C 348.445312 75.320312 333.644531 78.132812 327.96875 81.6875 L 321.820312 85.542969 L 260.875 70.890625 C 259.125 70.382812 257.101562 70.710938 255.40625 71.765625 C 251.84375 73.992188 251.0625 78.511719 253.828125 80.882812 L 285.75 106.035156 L 252.679688 134.765625 L 237.070312 128.214844 C 235.230469 127.445312 233.140625 127.617188 231.457031 128.671875 L 225.964844 132.109375 C 224.671875 132.917969 224.738281 134.804688 226.082031 135.523438 L 246.441406 146.644531 L 247.394531 169.441406 C 247.457031 170.949219 249.140625 171.835938 250.421875 171.027344 L 255.914062 167.589844 C 257.597656 166.535156 258.667969 164.722656 258.773438 162.746094 L 259.582031 147.207031 L 298.355469 128.957031 L 308.394531 175.117188 C 309.320312 178.636719 313.730469 179.898438 317.292969 177.671875 C 318.988281 176.617188 320.164062 174.9375 320.464844 173.136719 L 334.769531 106.152344 L 340.914062 102.296875 C 346.59375 98.738281 355.570312 86.652344 352.007812 80.984375 Z M 340.09375 97.777344 C 341.292969 87.796875 331.386719 83.851562 331.386719 83.851562 C 331.386719 83.851562 341.503906 79.125 345.15625 84.957031 C 349.007812 91.105469 340.09375 97.777344 340.09375 97.777344 Z M 340.09375 97.777344 " fill-opacity="1" fill-rule="nonzero"/></svg>