<svg xmlns="http://www.w3.org/2000/svg" xmlns:xlink="http://www.w3.org/1999/xlink" width="1920" zoomAndPan="magnify" viewBox="0 0 1440 809.999993" height="1080" preserveAspectRatio="xMidYMid meet" version="1.0"><defs><g/><clipPath id="082e81900d"><path d="M 86 130.113281 L 550 130.113281 L 550 427 L 86 427 Z M 86 130.113281 " clip-rule="nonzero"/></clipPath><clipPath id="e142077bf6"><path d="M 102 366 L 637 366 L 637 679.863281 L 102 679.863281 Z M 102 366 " clip-rule="nonzero"/></clipPath><clipPath id="2b2f2de4f2"><path d="M 35.359375 301 L 510 301 L 510 490 L 35.359375 490 Z M 35.359375 301 " clip-rule="nonzero"/></clipPath></defs><g fill="#545454" fill-opacity="0.4"><g transform="translate(732.727889, 486.831471)"><g><path d="M 44.597656 -77.796875 L 116.996094 3 L 124.597656 3 L 124.597656 -142.796875 L 95.796875 -142.796875 L 95.796875 -62 L 23.597656 -145.996094 L 16 -145.996094 L 16 0 L 44.597656 0 Z M 44.597656 -77.796875 "/></g></g></g><g fill="#545454" fill-opacity="0.4"><g transform="translate(923.524182, 486.831471)"><g><path d="M 89.996094 0 L 89.996094 -28.597656 L 44.597656 -28.597656 L 44.597656 -57.199219 L 82.199219 -57.199219 L 82.199219 -85.796875 L 44.597656 -85.796875 L 44.597656 -114.398438 L 87.597656 -114.398438 L 87.597656 -142.996094 L 16 -142.996094 L 16 0 Z M 89.996094 0 "/></g></g></g><g fill="#545454" fill-opacity="0.4"><g transform="translate(1074.321567, 486.831471)"><g><path d="M 59.796875 3 L 64.796875 3 L 90.796875 -61 L 116.996094 2.398438 L 122.195312 2.398438 L 180.59375 -142.996094 L 148.394531 -142.996094 L 119.597656 -70 L 91.597656 -141.597656 L 90.199219 -141.597656 L 62.199219 -70 L 33.398438 -142.996094 L 1.199219 -142.996094 Z M 59.796875 3 "/></g></g></g><g fill="#545454" fill-opacity="0.4"><g transform="translate(1306.316731, 486.831471)"><g><path d="M 9.398438 -9.199219 C 28.800781 0.800781 46.597656 1.800781 54.597656 1.199219 C 81.398438 -0.199219 97.796875 -18.398438 97.796875 -42.199219 C 97.796875 -65 78.597656 -77.796875 56.398438 -85.996094 C 48.199219 -88.796875 41.199219 -92.398438 40.398438 -100.398438 C 39.800781 -108.398438 44.398438 -115.796875 54.597656 -116.398438 C 59 -116.597656 68 -116.796875 83.796875 -110.398438 L 87.398438 -137.996094 C 69 -144.394531 59.199219 -144.394531 51.796875 -143.996094 C 28 -142.796875 11.398438 -124.398438 11.398438 -100.398438 C 11.398438 -76.398438 31.398438 -65 53.796875 -56.796875 C 61.796875 -54 68 -50.398438 68.597656 -42.199219 C 69.398438 -34.398438 62.199219 -28.398438 53.796875 -27.800781 C 47.199219 -27.199219 29.398438 -27.597656 13 -39.199219 Z M 9.398438 -9.199219 "/></g></g></g><g fill="#c9e265" fill-opacity="1"><g transform="translate(719.99997, 474.103532)"><g><path d="M 44.597656 -77.796875 L 116.996094 3 L 124.597656 3 L 124.597656 -142.796875 L 95.796875 -142.796875 L 95.796875 -62 L 23.597656 -145.996094 L 16 -145.996094 L 16 0 L 44.597656 0 Z M 44.597656 -77.796875 "/></g></g></g><g fill="#c9e265" fill-opacity="1"><g transform="translate(910.796263, 474.103532)"><g><path d="M 89.996094 0 L 89.996094 -28.597656 L 44.597656 -28.597656 L 44.597656 -57.199219 L 82.199219 -57.199219 L 82.199219 -85.796875 L 44.597656 -85.796875 L 44.597656 -114.398438 L 87.597656 -114.398438 L 87.597656 -142.996094 L 16 -142.996094 L 16 0 Z M 89.996094 0 "/></g></g></g><g fill="#c9e265" fill-opacity="1"><g transform="translate(1061.593648, 474.103532)"><g><path d="M 59.796875 3 L 64.796875 3 L 90.796875 -61 L 116.996094 2.398438 L 122.195312 2.398438 L 180.59375 -142.996094 L 148.394531 -142.996094 L 119.597656 -70 L 91.597656 -141.597656 L 90.199219 -141.597656 L 62.199219 -70 L 33.398438 -142.996094 L 1.199219 -142.996094 Z M 59.796875 3 "/></g></g></g><g fill="#c9e265" fill-opacity="1"><g transform="translate(1293.588811, 474.103532)"><g><path d="M 9.398438 -9.199219 C 28.800781 0.800781 46.597656 1.800781 54.597656 1.199219 C 81.398438 -0.199219 97.796875 -18.398438 97.796875 -42.199219 C 97.796875 -65 78.597656 -77.796875 56.398438 -85.996094 C 48.199219 -88.796875 41.199219 -92.398438 40.398438 -100.398438 C 39.800781 -108.398438 44.398438 -115.796875 54.597656 -116.398438 C 59 -116.597656 68 -116.796875 83.796875 -110.398438 L 87.398438 -137.996094 C 69 -144.394531 59.199219 -144.394531 51.796875 -143.996094 C 28 -142.796875 11.398438 -124.398438 11.398438 -100.398438 C 11.398438 -76.398438 31.398438 -65 53.796875 -56.796875 C 61.796875 -54 68 -50.398438 68.597656 -42.199219 C 69.398438 -34.398438 62.199219 -28.398438 53.796875 -27.800781 C 47.199219 -27.199219 29.398438 -27.597656 13 -39.199219 Z M 9.398438 -9.199219 "/></g></g></g><g clip-path="url(#082e81900d)"><path fill="#000000" d="M 130.878906 422.222656 C 130.457031 416.535156 130.234375 410.789062 130.234375 404.988281 C 130.234375 381.527344 133.726562 358.910156 140.203125 337.5625 C 149.078125 362.542969 180.261719 380.710938 201.953125 393.382812 C 208.289062 397.101562 214.824219 400.566406 220.910156 404.621094 C 232.542969 401.578125 244.039062 398.226562 255.390625 394.621094 C 253.164062 388.511719 252.121094 380.542969 253.390625 376.34375 C 256.574219 365.894531 266.320312 368.628906 275.445312 367.839844 C 305.363281 365.25 296.152344 317.117188 309.476562 299.234375 C 319.222656 286.136719 338.886719 278.195312 338.96875 261.890625 C 339.027344 248.371094 324.546875 238.203125 324.292969 224.683594 C 324.265625 223.332031 324.378906 221.980469 324.601562 220.628906 C 325.390625 215.445312 327.449219 210.351562 327.082031 205.140625 C 326.320312 194.664062 316.574219 187.285156 308.546875 179.59375 C 325.671875 175.566406 343.53125 173.398438 361.898438 173.398438 C 385.730469 173.398438 408.746094 177.003906 430.378906 183.707031 C 424.296875 200.4375 437.648438 229.050781 452.492188 238.457031 C 463.648438 245.527344 479.308594 248.285156 484.296875 260.507812 C 485.167969 262.675781 485.5625 264.847656 485.648438 266.988281 C 505.988281 249.355469 525.140625 230.402344 542.972656 210.152344 C 545.566406 207.222656 547.394531 205.140625 549.03125 203.675781 C 499.957031 158.050781 434.210938 130.140625 361.898438 130.140625 C 210.066406 130.140625 86.964844 253.214844 86.964844 405.015625 C 86.964844 412.335938 87.246094 419.574219 87.808594 426.730469 C 102.316406 425.601562 116.65625 424.109375 130.878906 422.222656 Z M 130.878906 422.222656 " fill-opacity="1" fill-rule="nonzero"/></g><g clip-path="url(#e142077bf6)"><path fill="#000000" d="M 601.820312 386.820312 C 599.847656 387.949219 598.410156 388.792969 597.765625 389.1875 C 552.636719 416.757812 504.269531 439.570312 453.703125 457.257812 C 453.449219 459.539062 453.421875 461.792969 453.84375 464.046875 C 456.125 476.832031 468.664062 487.730469 481.621094 488.125 C 487.59375 488.324219 494.351562 486.914062 498.972656 490.714844 C 501.761719 493.027344 502.972656 496.6875 503.929688 500.179688 C 510.210938 523.019531 511.929688 547.101562 508.945312 570.589844 C 508.351562 575.320312 507.59375 580.136719 507.875 584.867188 C 468.042969 617.226562 417.253906 636.632812 361.925781 636.632812 C 350.855469 636.632812 339.957031 635.84375 329.308594 634.320312 C 329.417969 632.378906 329.589844 630.464844 329.871094 628.546875 C 331.363281 618.886719 336.433594 609.847656 343.898438 603.539062 C 348.855469 599.371094 355.390625 595.316406 355.5625 588.839844 C 355.730469 581.882812 348.519531 577.515625 343.671875 572.53125 C 334.207031 562.816406 333.082031 547.351562 341.277344 537.046875 C 351.957031 523.640625 362.097656 509.613281 372.152344 495.589844 C 375.5625 490.828125 379.167969 485.421875 378.351562 479.621094 C 378.351562 479.5625 378.324219 479.535156 378.324219 479.480469 C 335.027344 489.898438 290.601562 496.742188 245.644531 499.785156 C 234.910156 500.515625 224.261719 500.996094 213.671875 501.304688 C 212.65625 511.078125 213.445312 521.078125 216.261719 529.921875 C 222.320312 548.929688 238.769531 563.546875 257.503906 570.417969 C 262.433594 572.222656 267.671875 573.601562 271.8125 576.8125 C 275.980469 580.023438 278.800781 585.738281 276.800781 590.585938 C 275.617188 593.484375 272.855469 595.851562 272.828125 598.976562 C 272.800781 601.144531 274.121094 603.058594 275.363281 604.804688 C 277.671875 608.015625 282.039062 615.707031 287.222656 624.324219 C 226.488281 603.652344 177.105469 558.421875 150.851562 500.515625 C 143.613281 500.125 136.402344 499.644531 129.273438 499.023438 L 128.230469 498.941406 C 120.964844 498.320312 112.035156 497.53125 102.484375 496.179688 C 140.089844 603.171875 242.039062 679.890625 361.925781 679.890625 C 513.761719 679.890625 636.863281 556.816406 636.863281 405.015625 C 636.863281 392.058594 635.933594 379.300781 634.214844 366.824219 C 627.933594 371.558594 617.765625 377.613281 601.820312 386.820312 Z M 601.820312 386.820312 " fill-opacity="1" fill-rule="nonzero"/></g><g clip-path="url(#2b2f2de4f2)"><path fill="#000000" d="M 458.605469 301.796875 C 455.675781 300.613281 345.816406 407.972656 126.964844 433.828125 C 114.0625 435.347656 74.765625 439.65625 64.117188 437.714844 C 52.035156 435.515625 41.949219 428.164062 53.894531 406.761719 C 45.78125 416.507812 35.976562 424.417969 35.863281 438.53125 C 35.46875 480.550781 100.089844 485.648438 130.203125 488.238281 C 168.316406 491.535156 222.179688 487.929688 259.867188 481.421875 C 351.730469 465.539062 399.167969 436.613281 509.421875 381.328125 C 509.421875 381.328125 509.453125 349.082031 509.421875 324.722656 C 509.367188 324.664062 488.578125 313.992188 458.605469 301.796875 Z M 458.605469 301.796875 " fill-opacity="1" fill-rule="nonzero"/></g><path fill="#000000" d="M 752.753906 174.976562 C 745.0625 162.726562 713.117188 168.808594 700.863281 176.496094 L 687.597656 184.832031 L 556.042969 153.148438 C 552.269531 152.050781 547.902344 152.753906 544.242188 155.035156 C 536.550781 159.851562 534.859375 169.625 540.832031 174.75 L 609.734375 229.132812 L 538.355469 291.261719 L 504.664062 277.097656 C 500.691406 275.433594 496.183594 275.800781 492.550781 278.082031 L 480.691406 285.519531 C 477.902344 287.265625 478.042969 291.347656 480.945312 292.898438 L 524.890625 316.949219 L 526.945312 366.234375 C 527.085938 369.5 530.71875 371.417969 533.480469 369.671875 L 545.339844 362.234375 C 548.972656 359.953125 551.285156 356.039062 551.507812 351.757812 L 553.253906 318.160156 L 636.949219 278.703125 L 658.609375 378.511719 C 660.609375 386.117188 670.132812 388.847656 677.820312 384.035156 C 681.484375 381.753906 684.019531 378.121094 684.667969 374.234375 L 715.539062 229.386719 L 728.808594 221.050781 C 741.0625 213.363281 760.441406 187.226562 752.753906 174.976562 Z M 727.035156 211.277344 C 729.625 189.707031 708.246094 181.171875 708.246094 181.171875 C 708.246094 181.171875 730.078125 170.949219 737.964844 183.566406 C 746.273438 196.859375 727.035156 211.277344 727.035156 211.277344 Z M 727.035156 211.277344 " fill-opacity="1" fill-rule="nonzero"/></svg>