<svg xmlns="http://www.w3.org/2000/svg" xmlns:xlink="http://www.w3.org/1999/xlink" width="500" zoomAndPan="magnify" viewBox="0 0 375 374.999991" height="500" preserveAspectRatio="xMidYMid meet" version="1.0"><defs><g/><clipPath id="6df675715a"><path d="M 43 19.144531 L 258 19.144531 L 258 157 L 43 157 Z M 43 19.144531 " clip-rule="nonzero"/></clipPath><clipPath id="8e8f53ea5d"><path d="M 50 128 L 299 128 L 299 273.394531 L 50 273.394531 Z M 50 128 " clip-rule="nonzero"/></clipPath><clipPath id="3f03b9702a"><path d="M 19.648438 98 L 240 98 L 240 186 L 19.648438 186 Z M 19.648438 98 " clip-rule="nonzero"/></clipPath></defs><g clip-path="url(#6df675715a)"><path fill="#3870c2" d="M 63.898438 154.242188 C 63.703125 151.609375 63.601562 148.953125 63.601562 146.269531 C 63.601562 135.417969 65.21875 124.960938 68.21875 115.085938 C 72.332031 126.640625 86.777344 135.042969 96.828125 140.902344 C 99.761719 142.621094 102.792969 144.222656 105.609375 146.101562 C 111 144.691406 116.324219 143.144531 121.585938 141.476562 C 120.554688 138.648438 120.070312 134.964844 120.65625 133.023438 C 122.132812 128.191406 126.648438 129.453125 130.875 129.089844 C 144.738281 127.890625 140.46875 105.628906 146.640625 97.359375 C 151.15625 91.304688 160.265625 87.628906 160.304688 80.089844 C 160.332031 73.835938 153.625 69.132812 153.507812 62.882812 C 153.492188 62.257812 153.546875 61.632812 153.648438 61.007812 C 154.015625 58.609375 154.96875 56.253906 154.796875 53.84375 C 154.445312 48.996094 149.929688 45.585938 146.210938 42.027344 C 154.144531 40.167969 162.421875 39.164062 170.929688 39.164062 C 181.96875 39.164062 192.632812 40.832031 202.65625 43.929688 C 199.835938 51.667969 206.023438 64.902344 212.898438 69.25 C 218.070312 72.519531 225.324219 73.796875 227.632812 79.449219 C 228.039062 80.453125 228.222656 81.457031 228.261719 82.445312 C 237.683594 74.292969 246.558594 65.527344 254.820312 56.160156 C 256.019531 54.808594 256.867188 53.84375 257.625 53.164062 C 234.890625 32.066406 204.429688 19.15625 170.929688 19.15625 C 100.585938 19.15625 43.554688 76.078125 43.554688 146.28125 C 43.554688 149.667969 43.683594 153.015625 43.945312 156.324219 C 50.667969 155.804688 57.308594 155.113281 63.898438 154.242188 Z M 63.898438 154.242188 " fill-opacity="1" fill-rule="nonzero"/></g><g clip-path="url(#8e8f53ea5d)"><path fill="#3870c2" d="M 282.082031 137.867188 C 281.167969 138.390625 280.503906 138.78125 280.203125 138.960938 C 259.296875 151.714844 236.886719 162.265625 213.460938 170.445312 C 213.34375 171.5 213.332031 172.539062 213.527344 173.582031 C 214.582031 179.496094 220.390625 184.535156 226.394531 184.71875 C 229.160156 184.808594 232.292969 184.160156 234.433594 185.917969 C 235.726562 186.984375 236.289062 188.679688 236.730469 190.292969 C 239.640625 200.855469 240.4375 211.992188 239.054688 222.855469 C 238.78125 225.046875 238.425781 227.273438 238.558594 229.460938 C 220.105469 244.425781 196.574219 253.402344 170.941406 253.402344 C 165.8125 253.402344 160.761719 253.035156 155.828125 252.332031 C 155.882812 251.433594 155.960938 250.546875 156.089844 249.664062 C 156.78125 245.195312 159.132812 241.015625 162.589844 238.097656 C 164.886719 236.167969 167.914062 234.292969 167.992188 231.296875 C 168.070312 228.078125 164.730469 226.0625 162.484375 223.753906 C 158.101562 219.261719 157.578125 212.109375 161.375 207.34375 C 166.320312 201.144531 171.019531 194.65625 175.679688 188.171875 C 177.257812 185.96875 178.929688 183.46875 178.550781 180.785156 C 178.550781 180.757812 178.539062 180.746094 178.539062 180.71875 C 158.480469 185.539062 137.898438 188.703125 117.070312 190.113281 C 112.097656 190.449219 107.164062 190.671875 102.257812 190.816406 C 101.785156 195.335938 102.152344 199.957031 103.457031 204.046875 C 106.261719 212.839844 113.882812 219.601562 122.5625 222.777344 C 124.847656 223.613281 127.273438 224.25 129.191406 225.734375 C 131.125 227.21875 132.429688 229.863281 131.503906 232.105469 C 130.953125 233.445312 129.675781 234.539062 129.664062 235.984375 C 129.648438 236.988281 130.261719 237.875 130.835938 238.683594 C 131.90625 240.167969 133.929688 243.722656 136.332031 247.707031 C 108.195312 238.148438 85.316406 217.230469 73.152344 190.449219 C 69.800781 190.269531 66.457031 190.046875 63.15625 189.761719 L 62.671875 189.722656 C 59.304688 189.433594 55.167969 189.070312 50.746094 188.445312 C 68.167969 237.925781 115.398438 273.40625 170.941406 273.40625 C 241.285156 273.40625 298.316406 216.488281 298.316406 146.28125 C 298.316406 140.289062 297.886719 134.390625 297.089844 128.621094 C 294.179688 130.808594 289.46875 133.609375 282.082031 137.867188 Z M 282.082031 137.867188 " fill-opacity="1" fill-rule="nonzero"/></g><g clip-path="url(#3f03b9702a)"><path fill="#3870c2" d="M 215.730469 98.546875 C 214.375 98 163.476562 147.648438 62.085938 159.605469 C 56.109375 160.308594 37.902344 162.304688 32.96875 161.40625 C 27.371094 160.386719 22.699219 156.988281 28.230469 147.089844 C 24.472656 151.597656 19.933594 155.257812 19.878906 161.78125 C 19.695312 181.214844 49.636719 183.574219 63.585938 184.769531 C 81.246094 186.296875 106.199219 184.628906 123.660156 181.621094 C 166.21875 174.273438 188.195312 160.894531 239.277344 135.328125 C 239.277344 135.328125 239.289062 120.414062 239.277344 109.148438 C 239.25 109.121094 229.617188 104.183594 215.730469 98.546875 Z M 215.730469 98.546875 " fill-opacity="1" fill-rule="nonzero"/></g><path fill="#3870c2" d="M 352.007812 39.894531 C 348.445312 34.226562 333.644531 37.039062 327.96875 40.597656 L 321.820312 44.453125 L 260.875 29.796875 C 259.125 29.289062 257.101562 29.617188 255.40625 30.671875 C 251.84375 32.898438 251.0625 37.417969 253.828125 39.789062 L 285.75 64.941406 L 252.679688 93.671875 L 237.070312 87.121094 C 235.230469 86.355469 233.140625 86.523438 231.457031 87.578125 L 225.964844 91.015625 C 224.671875 91.824219 224.738281 93.710938 226.082031 94.429688 L 246.441406 105.550781 L 247.394531 128.347656 C 247.457031 129.859375 249.140625 130.742188 250.421875 129.9375 L 255.914062 126.496094 C 257.597656 125.441406 258.667969 123.632812 258.773438 121.652344 L 259.582031 106.113281 L 298.355469 87.863281 L 308.394531 134.027344 C 309.320312 137.542969 313.730469 138.804688 317.292969 136.578125 C 318.988281 135.523438 320.164062 133.84375 320.464844 132.046875 L 334.769531 65.058594 L 340.914062 61.203125 C 346.59375 57.644531 355.570312 45.558594 352.007812 39.894531 Z M 340.09375 56.683594 C 341.292969 46.707031 331.386719 42.757812 331.386719 42.757812 C 331.386719 42.757812 341.503906 38.03125 345.15625 43.867188 C 349.007812 50.011719 340.09375 56.683594 340.09375 56.683594 Z M 340.09375 56.683594 " fill-opacity="1" fill-rule="nonzero"/><g fill="#545454" fill-opacity="0.4"><g transform="translate(81.109058, 324.133836)"><g><path d="M 12.488281 -21.78125 L 32.757812 0.839844 L 34.886719 0.839844 L 34.886719 -39.980469 L 26.820312 -39.980469 L 26.820312 -17.359375 L 6.605469 -40.875 L 4.480469 -40.875 L 4.480469 0 L 12.488281 0 Z M 12.488281 -21.78125 "/></g></g></g><g fill="#545454" fill-opacity="0.4"><g transform="translate(134.527557, 324.133836)"><g><path d="M 25.199219 0 L 25.199219 -8.007812 L 12.488281 -8.007812 L 12.488281 -16.015625 L 23.015625 -16.015625 L 23.015625 -24.023438 L 12.488281 -24.023438 L 12.488281 -32.027344 L 24.527344 -32.027344 L 24.527344 -40.035156 L 4.480469 -40.035156 L 4.480469 0 Z M 25.199219 0 "/></g></g></g><g fill="#545454" fill-opacity="0.4"><g transform="translate(176.747624, 324.133836)"><g><path d="M 16.742188 0.839844 L 18.140625 0.839844 L 25.421875 -17.078125 L 32.757812 0.671875 L 34.214844 0.671875 L 50.5625 -40.035156 L 41.546875 -40.035156 L 33.484375 -19.597656 L 25.644531 -39.644531 L 25.253906 -39.644531 L 17.414062 -19.597656 L 9.351562 -40.035156 L 0.335938 -40.035156 Z M 16.742188 0.839844 "/></g></g></g><g fill="#545454" fill-opacity="0.4"><g transform="translate(241.700508, 324.133836)"><g><path d="M 2.632812 -2.574219 C 8.0625 0.222656 13.046875 0.503906 15.285156 0.335938 C 22.789062 -0.0546875 27.382812 -5.152344 27.382812 -11.816406 C 27.382812 -18.199219 22.007812 -21.78125 15.789062 -24.078125 C 13.496094 -24.863281 11.535156 -25.871094 11.3125 -28.109375 C 11.144531 -30.347656 12.429688 -32.421875 15.285156 -32.589844 C 16.519531 -32.644531 19.039062 -32.699219 23.460938 -30.910156 L 24.46875 -38.636719 C 19.316406 -40.429688 16.574219 -40.429688 14.503906 -40.316406 C 7.839844 -39.980469 3.191406 -34.828125 3.191406 -28.109375 C 3.191406 -21.390625 8.792969 -18.199219 15.0625 -15.902344 C 17.300781 -15.117188 19.039062 -14.109375 19.207031 -11.816406 C 19.429688 -9.632812 17.414062 -7.953125 15.0625 -7.785156 C 13.214844 -7.617188 8.230469 -7.726562 3.640625 -10.976562 Z M 2.632812 -2.574219 "/></g></g></g><g fill="#545454" fill-opacity="1"><g transform="translate(77.545238, 320.570019)"><g><path d="M 12.488281 -21.78125 L 32.757812 0.839844 L 34.886719 0.839844 L 34.886719 -39.980469 L 26.820312 -39.980469 L 26.820312 -17.359375 L 6.605469 -40.875 L 4.480469 -40.875 L 4.480469 0 L 12.488281 0 Z M 12.488281 -21.78125 "/></g></g></g><g fill="#545454" fill-opacity="1"><g transform="translate(130.963737, 320.570019)"><g><path d="M 25.199219 0 L 25.199219 -8.007812 L 12.488281 -8.007812 L 12.488281 -16.015625 L 23.015625 -16.015625 L 23.015625 -24.023438 L 12.488281 -24.023438 L 12.488281 -32.027344 L 24.527344 -32.027344 L 24.527344 -40.035156 L 4.480469 -40.035156 L 4.480469 0 Z M 25.199219 0 "/></g></g></g><g fill="#545454" fill-opacity="1"><g transform="translate(173.183805, 320.570019)"><g><path d="M 16.742188 0.839844 L 18.140625 0.839844 L 25.421875 -17.078125 L 32.757812 0.671875 L 34.214844 0.671875 L 50.5625 -40.035156 L 41.546875 -40.035156 L 33.484375 -19.597656 L 25.644531 -39.644531 L 25.253906 -39.644531 L 17.414062 -19.597656 L 9.351562 -40.035156 L 0.335938 -40.035156 Z M 16.742188 0.839844 "/></g></g></g><g fill="#545454" fill-opacity="1"><g transform="translate(238.136689, 320.570019)"><g><path d="M 2.632812 -2.574219 C 8.0625 0.222656 13.046875 0.503906 15.285156 0.335938 C 22.789062 -0.0546875 27.382812 -5.152344 27.382812 -11.816406 C 27.382812 -18.199219 22.007812 -21.78125 15.789062 -24.078125 C 13.496094 -24.863281 11.535156 -25.871094 11.3125 -28.109375 C 11.144531 -30.347656 12.429688 -32.421875 15.285156 -32.589844 C 16.519531 -32.644531 19.039062 -32.699219 23.460938 -30.910156 L 24.46875 -38.636719 C 19.316406 -40.429688 16.574219 -40.429688 14.503906 -40.316406 C 7.839844 -39.980469 3.191406 -34.828125 3.191406 -28.109375 C 3.191406 -21.390625 8.792969 -18.199219 15.0625 -15.902344 C 17.300781 -15.117188 19.039062 -14.109375 19.207031 -11.816406 C 19.429688 -9.632812 17.414062 -7.953125 15.0625 -7.785156 C 13.214844 -7.617188 8.230469 -7.726562 3.640625 -10.976562 Z M 2.632812 -2.574219 "/></g></g></g></svg>